<?xml version="1.0" encoding="utf-8"?>
<!-- Generator: Adobe Illustrator 19.2.1, SVG Export Plug-In . SVG Version: 6.00 Build 0)  -->
<svg version="1.1" id="Layer_1" xmlns="http://www.w3.org/2000/svg" xmlns:xlink="http://www.w3.org/1999/xlink" x="0px" y="0px"
	 viewBox="0 0 600 600" style="enable-background:new 0 0 600 600;" xml:space="preserve">
<style type="text/css">
	.st0{fill:#F1F5F9;}
</style>
<g transform="translate(0.000000,600.000000) scale(0.100000,-0.100000)">
	<path class="st0" d="M2610,5434c-299-35-524-88-745-177c-686-276-1206-796-1482-1482c-73-182-125-378-165-630c-17-108-17-572,0-680
		c54-339,129-581,262-845C842,899,1528,375,2310,222c214-42,262-47,525-47s311,5,525,47c373,73,738,236,1054,472
		c165,123,280,230,423,394l45,52l-39,53c-96,127-136,242-168,479l-6,48l-62-77c-239-299-553-516-860-594c-191-49-560-65-743-34
		c-432,76-759,368-864,772c-46,178-44,416,5,571c56,179,193,345,390,475c228,150,489,249,1110,422c436,121,583,174,736,265
		c83,49,178,140,203,194c51,110,40,284-28,421c-112,227-403,345-847,345c-312,0-516-58-680-194c-108-89-190-230-215-368l-6-38h-301
		h-300l6,78c36,452,418,832,977,971c186,46,310,61,527,61c265,0,500-33,685-96c82-27,82-27-24,50c-276,202-633,361-974,436
		c-192,41-287,51-524,55C2751,5437,2629,5436,2610,5434z"/>
	<path class="st0" d="M5198,2883c2-1050,6-1173,31-1173c13,0,105,240,140,365c75,268,96,425,96,730c0,253-6,318-46,525
		c-39,195-125,454-200,603l-24,46L5198,2883z"/>
	<path class="st0" d="M4590,3215c-43-47-145-114-241-159c-178-84-353-143-854-286c-447-128-686-272-778-468c-27-57-31-79-35-171
		c-6-167,31-287,128-408c55-70,171-146,273-180c77-26,92-27,262-27c162,0,189,3,275,26c375,102,674,337,934,735l66,101l-2,432
		l-3,432L4590,3215z"/>
</g>
</svg>
