<?xml version="1.0" encoding="utf-8"?>
<!-- Generator: Adobe Illustrator 19.2.1, SVG Export Plug-In . SVG Version: 6.00 Build 0)  -->
<svg version="1.1" id="Layer_1" xmlns="http://www.w3.org/2000/svg" xmlns:xlink="http://www.w3.org/1999/xlink" x="0px" y="0px"
	 viewBox="0 0 8503.9 8503.9" style="enable-background:new 0 0 8503.9 8503.9;" xml:space="preserve">
<style type="text/css">
	.st0{fill:#F1F5F9;}
	.st1{fill:#114834;}
</style>
<g>
	<g>
		<path class="st0" d="M8409.3,5083.9c-78.9-272.2-373.2-432.4-623.7-459c-352.6-37.4-713.6,65.1-1042.9,190.4
			c-699.7,266.2-1318.7,798.2-1893.3,1283.2c-117.6,99.3,7.3,261,131.2,234.8c-17.4,50.1-7.5,105.8,18.4,147.3
			c-10.7,1.2-21.5,2.6-32.2,3.8c-156.5,16.5-173,251.3-47,284.9c-21.4,32.9-34.4,72.4-34.4,119.4c0,176.6,170.4,254.9,297.3,320.3
			c403.2,207.9,841.3,321.1,1286.2,368.8c423.9,45.5,871.6,9.9,1282.7-109.8c151.8-44.2,232.1-146.7,251.8-306.4
			c21.2-171.6-193.7-307.7-306.2-379.1c-333.4-211.5-736.7-273.7-1119.1-309.4c215-58,428.6-122.3,640.4-194.9
			C7680.3,6119.9,8609.1,5773.7,8409.3,5083.9z M7766.7,5705.3c3.6-1.8,7.3-3.6,10.9-5.5c6.3,4.2,12.8,7.8,19.6,10.9
			c-32.3,20.1-62.8,37.8-89.9,53C7727.4,5747.1,7747.4,5727.2,7766.7,5705.3z M7715.5,4908.5c-1.1-0.7-2.2-1.4-3.3-2.1
			c9.4,0.7,18.7,1.3,28,2.4C7732,4908.6,7723.8,4908.4,7715.5,4908.5z M6389.1,5326.6c-110.6,57.6-219.1,119.6-325.6,185.3
			c110.5-74.8,222.8-145.7,336.8-212.9C6395.5,5308,6391.9,5317.2,6389.1,5326.6z"/>
		<path class="st0" d="M1340.3,6278.1c211.7,72.5,425.4,136.9,640.4,194.9c-382.4,35.7-785.7,97.9-1119.1,309.4
			c-112.5,71.4-327.4,207.4-306.2,379.1c19.7,159.7,100,262.2,251.8,306.4c411.1,119.7,858.8,155.3,1282.7,109.8
			c444.9-47.7,883-160.9,1286.1-368.8c126.9-65.4,297.3-143.7,297.3-320.3c0-47-13-86.5-34.4-119.4c126.1-33.5,109.5-268.3-47-284.9
			c-10.7-1.1-21.5-2.6-32.2-3.8c26-41.4,35.8-97.2,18.4-147.3c123.9,26.2,248.8-135.5,131.2-234.8
			c-574.6-485-1193.6-1017.1-1893.3-1283.2c-329.2-125.2-690.2-227.8-1042.9-190.4c-250.4,26.6-544.8,186.8-623.7,459
			C-50.4,5773.7,878.4,6119.9,1340.3,6278.1z M851.3,5763.8c-27-15.2-57.6-33-89.9-53c6.8-3.1,13.3-6.8,19.6-10.9
			c3.6,1.9,7.3,3.7,10.9,5.5C811.3,5727.2,831.3,5747.1,851.3,5763.8z M818.5,4908.8c9.3-1,18.7-1.6,28-2.4
			c-1.1,0.7-2.2,1.4-3.3,2.1C834.9,4908.4,826.7,4908.6,818.5,4908.8z M2158.4,5299c114,67.2,226.3,138.1,336.8,212.9
			c-106.5-65.8-215-127.8-325.6-185.3C2166.8,5317.2,2163.1,5308,2158.4,5299z"/>
		<path class="st0" d="M5459.6,6386.7c-57.2-213.8-168.2-405.5-304.6-572.6c-177.9-217.8-403.4-184.9-651.5-172.1
			c-243.9,12.6-556.4-24.4-784.2,84c-24.2,11.5-47.2,24.7-69.4,39.2c-4.8-118.9-179.6-195.1-258.1-66.3
			C3099,6179,2941.4,6765.2,3012.6,7336.4c64.4,517.2,401.9,909.2,904.6,936.5c246.9,13.4,519.8-57.7,756.4-125.1
			c232.7-66.3,443-204.5,584.1-412.6C5524.4,7341.9,5582.8,6847.7,5459.6,6386.7z M3501.5,7002c3.3,35.1,8.1,70.3,14.4,105.4
			c-6.9-27.8-12.9-55.9-17.8-84.3C3499.2,7016.1,3500.2,7009.1,3501.5,7002z M4140.6,7148.6c2.6,2,5,4.2,7.6,6.2
			c1.1,0.9,2.4,1.5,3.5,2.3c-7.3,14.3-14.4,28.6-21.7,42.8C4139.8,7181,4142.3,7164.2,4140.6,7148.6z"/>
		<path class="st0" d="M5846.5,1880.9c-465.5-295.1-1073.3-264.5-1585.1-161.6c-140.7,28.3-285.4,63.7-429.7,107.1
			c-28.2-32.5-70.3-52.7-126.4-49.3c-949.7,57.4-1664.1,914.9-1690.2,1898.7c-13.4,505.6,173.7,1025.8,471.1,1417.7
			c145,191,313.5,364.8,520.7,478.7c242.5,133.4,560.2,138.5,826.7,168.1c993.7,110.4,2043.7-286,2556.1-1235.6
			C6850.1,3651.6,6676.2,2406.9,5846.5,1880.9z"/>
		<g>
			<path class="st0" d="M5455.9,1881.6c309.8,220.6,619,447.8,823.2,785.7c207.2,343,225,773.4,155.7,1162.2
				c-129.2,725.2-627.6,1500-1325.9,1705.7c-121.3,35.7-69.7,234.7,52,198.8c795.9-234.4,1327.7-1093.3,1474-1914.1
				c73-409.7,25.6-829.7-156.3-1200.6c-196.9-401.5-579-670.2-924-915.8C5449.7,1628.9,5352,1807.6,5455.9,1881.6L5455.9,1881.6z"/>
		</g>
		<g>
			<path class="st0" d="M4946.4,5816c424.3,721.7,590.8,2151.1-447.4,2396.3c-123,29.1-70.8,227.8,52,198.8
				c476.1-112.4,786.9-531.3,894.6-1016.4c126.5-570-44.8-1197.1-330.3-1682.8C5049,5599.2,4879.8,5702.7,4946.4,5816L4946.4,5816z"
				/>
		</g>
		<g>
			<path class="st0" d="M7185.9,58.2c-273.8-17-1082.2,235.9-1323.4,361.9c-435.8,227.7-802.9,591-1071.1,1016.7
				c-420.9-36.4-839.1,26.4-1226,175.6C3297.8,1112.6,2869,559.9,2349.5,359.6c-237.4-91.5-499.8-105.6-696,84.3
				c-154.9,149.9-99.9,437.1,81.2,526.9c113.4,56.2,212.7-121.5,98.7-178C1656,704.8,1821.9,545.2,1928,510
				c99.5-33,212.1-4.1,308.2,24.8c189.1,56.9,358.1,204,505.3,334.8c259.3,230.4,471.4,512.4,640.5,821
				c-446,209.3-841.7,537-1139.3,962.2c-578.7,827-588.6,2066.4,216.5,2735.1c175.4,145.7,373.1,262.9,584.2,353.1
				c-244.8,93.1-458.2,315.1-541.4,566c-93.2,281,80.5,606.9,322.1,727.8c-25.9,230.1-5.3,462.1,89,688.5
				c98.4,236.2,192,436.1,447.6,563.5c483.1,108.4,1142.2,172,1513.5,158c165.4-56.3,519.7-404.2,650.3-735.4
				c101.9-258.3,138.4-523.5,127.8-787.6c15.8,0.1,32.6-4.1,49.7-15c536-341.1,295.9-1208.4-328.8-1173.2
				c851.1-371.8,1456-1262,1487.8-2236.1c18.4-561.9-214.5-1102-586.3-1489.8c-2.8-27.7-15.8-54.7-43.3-74.3
				c-36.8-26.3-74.6-50.1-112.9-72.4c-103.3-87.6-214.7-164-332.2-227.6c-15.7-21.3-39.3-37-71-39.9c-2.6-0.2-5.2-0.2-7.8-0.4
				c-209.2-100.3-435.8-159.3-670.3-166.1c182.8-259.6,403.5-483.1,660.4-666.6c182.2-130.2,1100.6-648.2,1085.2-144
				c-4.1,133,191.5,132.6,195.5,0C6986.6,351.3,7451.2,74.7,7185.9,58.2z M5028.7,1633.1c-15.7,6.7-31.2,13.7-46.7,20.9
				c2.1-7,4.2-14.1,5.5-21.4C5001.3,1632.6,5015.1,1632.8,5028.7,1633.1z M3748.5,1788.8c-8-5.3-16.4-10.1-24.9-14.5
				c44.1-15.8,88.3-30.5,132.5-43.8C3820,1749,3784.1,1768.5,3748.5,1788.8z M5451,6851.7c-765.2,293.6-1585.1,337.5-2373.6,121.7
				c-19.7-5.4-37.3-4.3-52.9,0.7c25.6-151.9,72.8-303.4,130.9-450.5c1,0.4,1.7,0.9,2.7,1.3c371,132.3,760.3,142.1,1145.7,83.7
				c210.5-31.8,417.8-77.7,624.6-129.3c144.3-36,296.9-63.8,427.2-139.5c49.9,167.3,84.6,338.3,97.7,511.1
				C5452.6,6851.3,5451.9,6851.4,5451,6851.7z M5151.3,5818.3c27.6,57.5,54.2,115.6,79.2,174.6C4613,6242,3952.4,6318,3298.9,6204.5
				c54.1-109.3,109.8-214,162-311.8c2-3.8,3.1-7.5,4.7-11.2C4021.9,6018.7,4627.1,5992.7,5151.3,5818.3z M3230.8,5904.5
				c-148.1,283.4-296.5,596.1-369.7,917.1C2458.3,6554.6,2820.2,5955.8,3230.8,5904.5z M5175.8,7933.1c-18.2-2.5-37.9,0.3-58,11.1
				c-545.2,291.2-1168.3,269.1-1735.8,62.2c-15.7-5.7-30.1-6.7-43.4-4.6c-94.8-95.2-175.4-205.8-234.8-330.2
				c-51.9-108.7-81.5-220.9-93.7-334.7c466.9,155.1,951.4,222.8,1441.8,203.8c302-11.7,700.6-30,978.3-210.3
				c-9.4,52.1-20.3,104.3-34.7,156.3C5348,7658.7,5272.6,7808,5175.8,7933.1z M5633.8,6707.5c-34.8-261.9-111.6-520.5-213-767.6
				C5798.3,5963.6,5959,6465.6,5633.8,6707.5z M6660.2,3617.6C6589.3,4789.9,5593.6,5623.7,4544,5745.2
				c-553.5,64.1-1124.1-54-1625.8-302.8c-539-267.3-863-772.1-900.3-1397.8c-51.2-859,476.5-1578.2,1155.1-2002.6
				c306.3-136.1,529.5,53.2,756.8,247.7c136.4,116.8,291.4,231.7,472.6,191.2c189.8-42.4,373.4-280.8,511.6-409.3
				c56.8-52.8,116.8-98,179.5-135.7c0.4-0.1,0.7-0.1,1-0.2c315.4-96.2,633.6-60.3,916.3,97.9
				C6437.6,2410.7,6697.1,3006.3,6660.2,3617.6z"/>
			<path class="st1" d="M2858.4,3645.1c-34.2,128.2,154.4,182.6,188.5,54.8c63.5-237.9,504-304.9,513.9-2
				c4.3,132.6,199.8,133,195.5,0C3738.8,3160.1,2982.7,3179.4,2858.4,3645.1z"/>
			<path class="st1" d="M5177.5,3699c-3.7,133,191.8,132.7,195.5,0c9.2-332.7,404.8-398.8,537.3-110.6
				c55,119.6,223.6,15,168.8-104.1C5857.2,3001.7,5192,3174.8,5177.5,3699z"/>
			<path class="st1" d="M4566.8,4910.8c26.1,178.2-215.6,217.4-261.7,50.7c-35.2-127.4-223.9-73.1-188.5,54.8
				c51.3,185.5,217.8,285.3,395.1,255.3c180.3-30.5,268.6-245.8,243.6-415.6C4736.2,4724.9,4547.8,4780.7,4566.8,4910.8z"/>
			<path class="st1" d="M3210.8,2868.7c60.9-8.9,121.7-17.8,182.6-26.7c52.9-7.7,81-78.1,68.3-126.8c-15.5-59.4-67.5-79.7-120.3-72
				c-60.9,8.9-121.7,17.8-182.6,26.7c-52.9,7.7-81,78.1-68.3,126.8C3106.1,2856.1,3158.1,2876.4,3210.8,2868.7z"/>
			<path class="st1" d="M5634.6,2675.1c86.9,0,173.8,0,260.7,0c126.1,0,126.1-206.2,0-206.2c-86.9,0-173.8,0-260.7,0
				C5508.5,2468.9,5508.5,2675.1,5634.6,2675.1z"/>
		</g>
	</g>
</g>
</svg>
