<?xml version="1.0" encoding="utf-8"?>
<!-- Generator: Adobe Illustrator 19.2.1, SVG Export Plug-In . SVG Version: 6.00 Build 0)  -->
<svg version="1.1" id="Capa_1" xmlns="http://www.w3.org/2000/svg" xmlns:xlink="http://www.w3.org/1999/xlink" x="0px" y="0px"
	 viewBox="0 0 600 600" style="enable-background:new 0 0 600 600;" xml:space="preserve">
<style type="text/css">
	.st0{fill:#DBE1E7;}
</style>
<g>
	<path class="st0" d="M165.8,43c-69.2,31.2-61.8,169.7,8.4,189.8c15.1,9.7,33.8,11,53.5-4.6C290.3,179,265.2-1.8,165.8,43z"/>
	<path class="st0" d="M533.7,206.7c-0.5-2.4-1.8-4.7-4.4-6.4c-53.9-35.1-3.8-159.7-100.1-154.1C346.9,51,373.7,159.4,334,204
		c-0.3,0.4-0.2,0.7-0.4,1.1c-3.7,2.2-5.8,7.3-2,11.1c17.5,17.5,41.3,22.3,65.4,23.6c3.5,12.3,21,22.2,32.2,23.6
		c10.1,1.3,20.1-1.2,28.3-7.2c5.2-3.7,11.3-10.3,12.7-17.1c24.6-1.7,50.2-6.1,63.7-18.5C538.9,216.1,537.4,210.4,533.7,206.7z"/>
	<path class="st0" d="M580.6,355.6c-7.4-32.7-29.6-59-63.4-63.6c-3.5-3.8-10.1-5.1-14-0.8c-21.1,23.5-42.1,39.4-75.5,37.1
		c-29.3-2.1-46-19.1-68-34.4c-0.2-3.3-2.4-6.4-6.1-6.2c-39.1,2-64.4,24.3-72,62.6c-12.1,61-1.9,129.5-0.4,191.3c0.1,3,1.3,5.2,3,6.7
		c0.5,2.6,1.9,5,4.3,6.2c29,14.1,81.6,3.9,113.6,4.3c55.7,0.6,111.8,3.3,167.5,0.7c4.8-0.2,7.7-3,8.8-6.4c1.3-1.6,2.3-3.5,2.3-6.1
		C582,486.4,594.1,415.3,580.6,355.6z"/>
	<path class="st0" d="M295,281.3c-0.3-0.5-0.3-1-0.8-1.4c-9.8-8.4-24.2-13.6-37.2-17.3c-4.3-3.8-11.9-3.3-14.4,3.9
		c-7.6,22.3-13.4,45.3-20,68c-2.7,9.4-5.5,22-10.4,32.8c-1.9-26.4-6.1-53.8-12.6-78c0.7-0.8,1.5-1.6,2.2-2.6
		c11.9-17.1-10.7-25.7-24.3-21.1c-3.5,1.2-4,4.4-2.7,7.4c-0.1,0.3-0.4,0.4-0.4,0.7c0,5.5,1.8,10.5,4.5,14.4
		c-4.2,16.1-7.2,32.9-10.6,49c0,0.1-0.1,0.3-0.1,0.4c-0.5,1.2-1.3,2.2-1.3,3.7c0,1,0.1,2,0,3.1c-1.8,8.8-3.5,17.6-4.9,26.5
		c-7.3-16.7-10.5-40.3-13.3-50.2c-5.3-19-10.3-37.9-19.5-55.5c0,0,0,0,0,0c-2.1-3.7-6.8-6.4-11.8-4.2c-19,8.3-37.7,17.2-56.4,26.2
		c-10.4,5-25,10-32.1,20c-3.1,0.9-5.9,3.2-6.4,7.2c-9.3,75.2-15.7,154.9-8.7,230.6c0.2,2,1.1,3.5,2.3,4.5c0.8,1.7,2.1,3.2,4.4,3.6
		c75.3,9.9,154.9,7.3,230.7,4c4.9-0.2,7.7-3.5,8.6-7.2c0.1-0.3,0.3-0.3,0.4-0.6c12.1-76.9-28.9-199.6,35.1-259.1
		C298.3,287.2,297.4,283.6,295,281.3z"/>
</g>
</svg>
