<?xml version="1.0" encoding="utf-8"?>
<!-- Generator: Adobe Illustrator 19.2.1, SVG Export Plug-In . SVG Version: 6.00 Build 0)  -->
<svg version="1.1" id="Capa_1" xmlns="http://www.w3.org/2000/svg" xmlns:xlink="http://www.w3.org/1999/xlink" x="0px" y="0px"
	 viewBox="0 0 600 600" style="enable-background:new 0 0 600 600;" xml:space="preserve">
<style type="text/css">
	.st0{fill:#F1F5F9;}
</style>
<g>
	<g>
		<path class="st0" d="M230.3,243.2c0-19.8-22.8-46.6-53.6-54.4c12.9-8.7,21.7-25.7,21.7-41.1c0-21.7-17.6-39.3-39.3-39.3
			c-21.7,0-39.3,17.6-39.3,39.3c0,15.4,8.9,32.5,21.7,41.1c-30.8,7.8-53.6,34.5-53.6,54.4C87.9,266.6,230.3,266.6,230.3,243.2z
			 M155.9,200.2h-0.2l-6.5-7.5c3.2,1.1,6.4,1.8,9.8,1.8c3.4,0,6.7-0.7,9.9-1.8l-6.5,7.5h-0.2l16.8,40.6l-20,19.9l-19.9-19.9
			L155.9,200.2z"/>
		<path class="st0" d="M372.6,243.2c0-19.8-22.8-46.6-53.6-54.4c12.9-8.7,21.7-25.7,21.7-41.1c0-21.7-17.6-39.3-39.3-39.3
			s-39.3,17.6-39.3,39.3c0,15.4,8.9,32.5,21.7,41.1c-30.8,7.8-53.6,34.5-53.6,54.4C230.3,266.6,372.6,266.6,372.6,243.2z
			 M298.3,200.2h-0.2l-6.5-7.5c3.1,1.1,6.4,1.8,9.8,1.8s6.7-0.7,9.8-1.8l-6.5,7.5h-0.2l16.8,40.6l-19.9,19.9l-20-19.9L298.3,200.2z"
			/>
		<path class="st0" d="M515,243.2c0-19.8-22.8-46.6-53.6-54.4c12.9-8.7,21.7-25.7,21.7-41.1c0-21.7-17.6-39.3-39.3-39.3
			c-21.7,0-39.3,17.6-39.3,39.3c0,15.4,8.9,32.5,21.7,41.1c-30.8,7.8-53.6,34.5-53.6,54.4C372.6,266.6,515,266.6,515,243.2z
			 M440.6,200.2h-0.2l-6.5-7.5c3.2,1.1,6.4,1.8,9.9,1.8c3.4,0,6.7-0.7,9.8-1.8l-6.5,7.5H447l16.8,40.6l-19.9,19.9l-20-19.9
			L440.6,200.2z"/>
		<polygon class="st0" points="580.4,320 580.4,294.3 528.6,260.7 565.2,294.3 37.7,294.3 74.3,260.7 22.4,294.3 22.4,320 74.3,320 
			74.3,474.8 61.4,474.8 61.4,489.3 42.2,489.3 42.2,503.6 560.6,503.6 560.6,489.3 541.4,489.3 541.4,474.8 528.6,474.8 528.6,320 
					"/>
	</g>
</g>
</svg>
