<?xml version="1.0" encoding="utf-8"?>
<!-- Generator: Adobe Illustrator 19.2.1, SVG Export Plug-In . SVG Version: 6.00 Build 0)  -->
<svg version="1.1" id="Layer_1" xmlns="http://www.w3.org/2000/svg" xmlns:xlink="http://www.w3.org/1999/xlink" x="0px" y="0px"
	 viewBox="0 0 500 500" style="enable-background:new 0 0 500 500;" xml:space="preserve">
<style type="text/css">
	.st0{fill:#FFFFFF;}
	.st1{fill:#F1F5F9;}
</style>
<line class="st0" x1="262.7" y1="50.7" x2="182.6" y2="130.9"/>
<line class="st0" x1="-63" y1="53.9" x2="-63" y2="230.8"/>
<g>
	<path class="st1" d="M117.7,123.5c14.9,0,27-12.6,27-28.1V39.1c0-15.5-12.1-28.1-27-28.1s-27,12.6-27,28.1v56.3
		C90.7,110.9,102.8,123.5,117.7,123.5z"/>
	<path class="st1" d="M387.2,123.5c14.9,0,27-12.6,27-28.1V39.1c0-15.5-12.1-28.1-27-28.1s-27,12.6-27,28.1v56.3
		C360.3,110.9,372.3,123.5,387.2,123.5z"/>
	<path class="st1" d="M468.1,39.1h-27v56.3c0,31-24.2,56.3-53.9,56.3s-53.9-25.2-53.9-56.3V39.1H171.6v56.3
		c0,31-24.2,56.3-53.9,56.3s-53.9-25.2-53.9-56.3V39.1h-27c-14.9,0-27,12.6-27,28.1v393.9c0,15.5,12.1,28.1,27,28.1h431.3
		c14.9,0,27-12.6,27-28.1V67.3C495.1,51.7,483,39.1,468.1,39.1z M468.1,433c0,15.5-12.1,28.1-27,28.1H63.8c-14.9,0-27-12.6-27-28.1
		V207.9c0-15.5,12.1-28.1,27-28.1h377.4c14.9,0,27,12.6,27,28.1V433z"/>
	<rect x="63.8" y="207.9" class="st1" width="53.9" height="56.3"/>
	<rect x="144.6" y="207.9" class="st1" width="53.9" height="56.3"/>
	<rect x="225.5" y="207.9" class="st1" width="53.9" height="56.3"/>
	<rect x="306.4" y="207.9" class="st1" width="53.9" height="56.3"/>
	<rect x="387.2" y="207.9" class="st1" width="53.9" height="56.3"/>
	<rect x="63.8" y="292.3" class="st1" width="53.9" height="56.3"/>
	<rect x="144.6" y="292.3" class="st1" width="53.9" height="56.3"/>
	<rect x="225.5" y="292.3" class="st1" width="53.9" height="56.3"/>
	<rect x="387.2" y="292.3" class="st1" width="53.9" height="56.3"/>
	<rect x="63.8" y="376.7" class="st1" width="53.9" height="56.3"/>
	<rect x="144.6" y="376.7" class="st1" width="53.9" height="56.3"/>
	<rect x="225.5" y="376.7" class="st1" width="53.9" height="56.3"/>
	<rect x="306.4" y="376.7" class="st1" width="53.9" height="56.3"/>
	<rect x="387.2" y="376.7" class="st1" width="53.9" height="56.3"/>
</g>
</svg>
