<?xml version="1.0" encoding="utf-8"?>
<!-- Generator: Adobe Illustrator 19.2.1, SVG Export Plug-In . SVG Version: 6.00 Build 0)  -->
<svg version="1.1" id="Capa_1" xmlns="http://www.w3.org/2000/svg" xmlns:xlink="http://www.w3.org/1999/xlink" x="0px" y="0px"
	 viewBox="0 0 600 600" style="enable-background:new 0 0 600 600;" xml:space="preserve">
<style type="text/css">
	.st0{fill:#DAE1E7;}
</style>
<g>
	<g>
		<g>
			<path class="st0" d="M565.8,444.2c-5.4-10.8-12.6-12.6-23.4-16.2c-46.8-18-88.2-27-135.1-43.2c-3.6-1.8-16.2-9-16.2-32.4
				c0-9-1.8-14.4-12.6-14.4c-3.6,0-1.8,0-3.6-7.2c-3.6-21.6-1.8-32.4-1.8-36c0-3.6,3.6-5.4,5.4-7.2c16.2-21.6,19.8-48.6,19.8-63
				c0,0,3.6,1.8,5.4-7.2c3.6-9,3.6-12.6,7.2-23.4c3.6-9,3.6-27-7.2-27c-7.2,1.8-5.4,0-5.4-7.2V98.5c-1.8-21.6-14.4-34.2-25.2-41.4
				c-14.4-9-19.8-12.6-27-18c-7.2-5.4-5.4-10.8,0-18c3.6-3.6,9-7.2,10.8-9c0,0-1.8,0-3.6,0c-3.6,0-37.8,5.4-50.4,9
				c-27,7.2-52.2,14.4-73.8,32.4c-14.4,10.8-27,27-27,45c0,9,0,43.2,0,61.2c0,5.4,0,9-7.2,7.2c-12.6-1.8-5.4,23.4-5.4,25.2
				c1.8,9,5.4,16.2,9,27c1.8,7.2,5.4,7.2,5.4,7.2c3.6,16.2,9,45,23.4,63c1.8,1.8,3.6,5.4,3.6,9c-1.8,10.8-1.8,25.2-3.6,36
				c0,1.8-1.8,7.2-5.4,7.2c-9,0-12.6,7.2-10.8,14.4c0,16.2-10.8,28.8-16.2,32.4c-23.4,10.8-104.4,34.2-131.5,43.2
				c-18,5.4-23.4,10.8-27,18L13,509c102.6,0,154.9,63,261.1,81c0,0,0,0,1.8,0L247,539.6l55.8-154.9l-18-37.8h36l-18,37.8l55.8,154.9
				l-34.2,46.8c1.8,0,3.6,0,3.6,0c109.8-18,185.5-81,261.1-81L565.8,444.2z M499.1,474.8h-82.8v-14.4h82.8L499.1,474.8L499.1,474.8z
				"/>
		</g>
	</g>
</g>
</svg>
