<?xml version="1.0" encoding="utf-8"?>
<!-- Generator: Adobe Illustrator 19.2.1, SVG Export Plug-In . SVG Version: 6.00 Build 0)  -->
<svg version="1.1" id="Layer_1" xmlns="http://www.w3.org/2000/svg" xmlns:xlink="http://www.w3.org/1999/xlink" x="0px" y="0px"
	 viewBox="0 0 500 500" style="enable-background:new 0 0 500 500;" xml:space="preserve">
<style type="text/css">
	.st0{fill:#F1F5F9;}
</style>
<g>
	<path class="st0" d="M469.7,255.6l13.9-161.4c1-8.4-1.5-16.8-6.8-23.1c-5.3-6.3-12.9-9.9-20.9-9.9H112.1l-4.8-21.4
		c-3-13.3-14.2-22.6-27.1-22.6H38.4c-15.4,0-27.8,13.1-27.8,29.3s12.5,29.3,27.8,29.3h19.7l50.6,270.8c3,13.3,14.2,22.6,27.1,22.6
		h306.2c15.4,0,27.8-13.1,27.8-29.3s-12.5-29.3-27.8-29.3H157.9l-6.6-29.3h290.7C456.2,281.3,468,270.3,469.7,255.6z M163.7,252
		h-27.8V90.6h27.8V252z M219.4,252h-27.8V90.6h27.8V252z M275.1,252h-27.8V90.6h27.8V252z M330.8,252h-27.8V90.6h27.8V252z
		 M386.4,252h-27.8V90.6h27.8V252z M414.3,90.6h27.8V252h-27.8V90.6z"/>
	<ellipse class="st0" cx="358.6" cy="442.7" rx="41.8" ry="44"/>
	<ellipse class="st0" cx="205.5" cy="442.7" rx="41.8" ry="44"/>
</g>
</svg>
