<?xml version="1.0" encoding="utf-8"?>
<!-- Generator: Adobe Illustrator 19.2.1, SVG Export Plug-In . SVG Version: 6.00 Build 0)  -->
<svg version="1.1" id="Layer_1" xmlns="http://www.w3.org/2000/svg" xmlns:xlink="http://www.w3.org/1999/xlink" x="0px" y="0px"
	 viewBox="0 0 600 600" style="enable-background:new 0 0 600 600;" xml:space="preserve">
<style type="text/css">
	.st0{fill:#F1F5F9;}
</style>
<g>
	<g>
		<g>
			<path class="st0" d="M570.5,254.2l-109.5-70.6c-0.9-0.5-1.8-0.8-2.7-1.1v-24.3c0-6.5-5.3-11.8-11.8-11.8h-43.7l-91.3-57
				c-3.8-2.4-8.7-2.4-12.5,0l-91.3,57h-55.5c-6.5,0-11.8,5.3-11.8,11.8v24.3c-0.9,0.3-1.9,0.5-2.7,1.1L28.3,254.2
				c-3.4,2.2-5.4,5.9-5.4,9.9V570c0,6.5,5.3,11.8,11.8,11.8h529.5c6.5,0,11.8-5.3,11.8-11.8V264.1
				C575.9,260.1,573.8,256.4,570.5,254.2z M305.3,113.2l53.1,33.2H252.2L305.3,113.2z M164.1,170h270.6v264.7c0,0,0,0.1,0,0.1
				l-39.8,24.2l-95.8-52.2c-3.6-1.9-7.9-1.9-11.5,0.1l-87.4,49.9l-36.2-22c0,0,0-0.1,0-0.1L164.1,170z M46.4,270.5l94.1-60.6v210.7
				l-94.1-57.2V270.5z M46.4,390.9l130.5,79.2L46.4,544.7V390.9z M70.1,558.2l223.5-127.7l234.1,127.7H70.1z M552.3,544.8L418.8,472
				l133.6-81.1V544.8z M552.3,363.4l-94.1,57.1V209.8l94.1,60.7V363.4z"/>
			<path class="st0" d="M211.1,287.6h141.2c6.5,0,11.8-5.3,11.8-11.8v-70.6c0-6.5-5.3-11.8-11.8-11.8H211.1
				c-6.5,0-11.8,5.3-11.8,11.8v70.6C199.4,282.4,204.6,287.6,211.1,287.6z M222.9,217h117.7v47.1H222.9V217z"/>
			<rect x="199.4" y="311.1" class="st0" width="188.2" height="23.5"/>
			<rect x="199.4" y="358.2" class="st0" width="188.2" height="23.5"/>
			<path class="st0" d="M517.1,158.2c3,0,6-1.1,8.3-3.4l41.6-41.6c4.6-4.6,4.6-12,0-16.6c-4.6-4.6-12-4.6-16.6,0l-41.6,41.6
				c-4.6,4.6-4.6,12,0,16.6C511,157,514,158.2,517.1,158.2z"/>
			<path class="st0" d="M73.4,154.7c2.3,2.3,5.3,3.4,8.3,3.4c3,0,6-1.1,8.3-3.4c4.6-4.6,4.6-12,0-16.6L48.5,96.5
				c-4.6-4.6-12-4.6-16.6,0c-4.6,4.6-4.6,12,0,16.6L73.4,154.7z"/>
			<path class="st0" d="M418.6,98.5c1.4,0.6,2.9,0.8,4.4,0.8c4.7,0,9.1-2.8,10.9-7.4l23.5-58.8c2.4-6-0.5-12.9-6.6-15.3
				c-6-2.4-12.9,0.5-15.3,6.6L412,83.2C409.6,89.3,412.5,96.1,418.6,98.5z"/>
			<path class="st0" d="M176.7,92c1.8,4.6,6.3,7.4,10.9,7.4c1.5,0,2.9-0.3,4.4-0.8c6-2.4,9-9.3,6.6-15.3L175,24.4
				c-2.4-6.1-9.3-9-15.3-6.6c-6,2.4-9,9.3-6.6,15.3L176.7,92z"/>
		</g>
	</g>
</g>
</svg>
