<?xml version="1.0" encoding="utf-8"?>
<!-- Generator: Adobe Illustrator 19.2.1, SVG Export Plug-In . SVG Version: 6.00 Build 0)  -->
<svg version="1.1" xmlns="http://www.w3.org/2000/svg" xmlns:xlink="http://www.w3.org/1999/xlink" x="0px" y="0px"
	 viewBox="0 0 600 600" style="enable-background:new 0 0 600 600;" xml:space="preserve">
<style type="text/css">
	.st0{fill:#DBE1E7;}
</style>
<g id="BG_1_">
</g>
<g id="ICONS">
	<g>
		<g>
			<g>
				<g>
					<g>
						<g>
							<g id="XMLID_301_">
								<g>
									<path class="st0" d="M502.7,424.2l-10.9,13.1c-1.2,1.6-3.6,1.8-5.2,0.5l-7.4-6.1c-7.9,6.7-17,11.4-26.6,14.1l0.9,9.5
										c0.2,2-1.3,3.8-3.3,4.1l-16.9,1.6c-2.1,0.2-3.9-1.3-4.1-3.3l-1-9.5c-9.9-0.9-19.6-3.8-28.6-8.8l-6.1,7.3
										c-1.3,1.6-3.6,1.8-5.1,0.5l-13.1-10.8c-1.6-1.3-1.9-3.7-0.6-5.3l6.2-7.3c-6.7-7.9-11.5-17-14.1-26.5l-9.5,0.9
										c-2.1,0.2-3.9-1.3-4.1-3.4l-1.5-16.8c-0.3-2.1,1.3-3.9,3.3-4.1l9.6-0.9c0.8-9.9,3.7-19.6,8.8-28.6l-7.4-6.2
										c-1.6-1.3-1.9-3.6-0.5-5.3l10.7-13c1.4-1.6,3.8-1.8,5.4-0.5l7.3,6.1c8-6.8,16.9-11.4,26.5-14.1l-0.9-9.5
										c-0.3-2.1,1.4-3.8,3.4-4.1l16.8-1.6c2-0.2,3.9,1.4,4.1,3.4l0.9,9.5c9.9,0.8,19.6,3.8,28.6,8.8l6.1-7.3
										c1.3-1.7,3.8-1.8,5.3-0.5l13.1,10.8c1.6,1.4,1.8,3.7,0.5,5.3l-6.1,7.3c6.7,7.8,11.4,16.9,14.1,26.5l9.5-0.9
										c2.1-0.2,3.9,1.3,4.1,3.3l1.6,16.9c0.2,2-1.3,3.8-3.3,4l-9.5,0.9c-0.8,9.9-3.8,19.7-8.8,28.7l7.4,6.2
										C503.8,420.3,504,422.6,502.7,424.2z M464.5,403.6c13.9-16.8,11.5-41.7-5.2-55.5c-16.8-13.9-41.6-11.5-55.5,5.2
										c-14,16.8-11.6,41.7,5.1,55.6C425.7,422.7,450.6,420.4,464.5,403.6z"/>
									<path class="st0" d="M295.2,569.8c-1.5-1.2-1.6-3.3-0.4-4.8l5.5-6.7c-6.1-7.1-10.3-15.3-12.8-24l-8.6,0.8
										c-1.9,0.2-3.5-1.1-3.6-3l-1.5-15.3c-0.1-1.9,1.2-3.5,3.1-3.8l8.6-0.7c0.7-9,3.3-17.9,8-26l-6.7-5.6
										c-1.4-1.2-1.6-3.3-0.5-4.7l9.9-11.8c1.2-1.4,3.3-1.6,4.8-0.4l6.7,5.5c7.1-6,15.3-10.3,24-12.7l-0.9-8.7
										c-0.1-1.8,1.3-3.5,3.1-3.6l15.3-1.4c1.8-0.2,3.6,1.2,3.7,3l0.8,8.7c9,0.7,17.9,3.3,26,8l5.5-6.7c1.3-1.4,3.5-1.6,4.9-0.4
										l11.8,9.8c1.5,1.2,1.7,3.4,0.5,4.8l-5.4,6.7c6,7.2,10.2,15.4,12.6,24l8.6-0.8c1.9-0.2,3.6,1.1,3.8,3l1.4,15.3
										c0.2,1.9-1.2,3.5-3,3.6l-8.8,0.9c-0.6,9-3.2,17.9-7.8,26l6.6,5.5c1.4,1.2,1.6,3.4,0.4,4.8l-9.8,11.9
										c-1.2,1.5-3.3,1.7-4.7,0.5l-6.8-5.5c-7.1,6.1-15.3,10.3-24,12.7l0.8,8.6c0.2,1.9-1.2,3.6-3,3.8l-15.3,1.5
										c-1.9,0.2-3.6-1.2-3.8-3l-0.8-8.7c-9-0.7-17.9-3.3-25.9-8l-5.6,6.7c-1.2,1.5-3.3,1.7-4.7,0.5L295.2,569.8z M376.1,540.2
										c12.6-15.2,10.4-37.8-4.8-50.4c-15.2-12.5-37.8-10.4-50.3,4.8c-12.6,15.3-10.5,37.8,4.8,50.4
										C341,557.6,363.5,555.5,376.1,540.2z"/>
									<path class="st0" d="M348.5,343.6v24.7c0,3.1-2.4,5.5-5.4,5.5h-14c-2.6,14.8-8.4,28.5-16.7,40.4l9.9,9.8
										c2.1,2.2,2.1,5.6,0,7.7l-17.5,17.5c-2.1,2.1-5.6,2.1-7.6,0l-9.9-9.9c-11.8,8.3-25.5,14.1-40.4,16.7v13.9
										c0,3-2.4,5.5-5.4,5.5h-24.8c-3,0-5.4-2.4-5.4-5.5v-13.9c-14.7-2.6-28.5-8.4-40.4-16.7l-9.9,9.9c-2.1,2.1-5.6,2.1-7.7,0
										l-17.6-17.5c-2-2.2-2-5.6,0-7.7l9.9-9.8c-8.3-11.9-14.1-25.6-16.7-40.4h-14c-3,0-5.4-2.5-5.4-5.5v-24.7
										c0-3,2.4-5.5,5.4-5.5h14c2.6-14.8,8.4-28.5,16.7-40.4l-9.9-9.8c-2-2.1-2-5.6,0-7.8l17.6-17.4c2.2-2.2,5.6-2.2,7.7,0
										l9.9,9.9c11.8-8.3,25.7-14.1,40.4-16.8V242c0-3,2.4-5.5,5.4-5.5h24.8c3,0,5.4,2.4,5.4,5.5v13.9
										c14.9,2.6,28.6,8.5,40.4,16.8l9.9-9.9c2.1-2.2,5.5-2.2,7.6,0l17.5,17.4c2.1,2.2,2.1,5.6,0,7.8l-9.9,9.8
										c8.3,11.9,14.1,25.6,16.7,40.4h14C346.1,338.2,348.5,340.6,348.5,343.6z M286.6,356c0-31.8-25.7-57.5-57.6-57.5
										c-31.7,0-57.6,25.8-57.6,57.5c0,31.7,25.9,57.5,57.6,57.5C260.8,413.5,286.6,387.7,286.6,356z"/>
									<polygon class="st0" points="300.5,20.2 435.8,128 435.8,69.3 535.7,69.3 535.7,207.6 585.3,247.2 535.4,309.7 
										300.3,122.2 65.1,309.7 15.2,247.2 300.1,20.2 300.2,19.9 300.3,20 300.3,19.9 									"/>
								</g>
							</g>
						</g>
					</g>
				</g>
			</g>
		</g>
	</g>
</g>
</svg>
