<?xml version="1.0" encoding="utf-8"?>
<!-- Generator: Adobe Illustrator 19.2.1, SVG Export Plug-In . SVG Version: 6.00 Build 0)  -->
<svg version="1.1" id="Layer_1" xmlns="http://www.w3.org/2000/svg" xmlns:xlink="http://www.w3.org/1999/xlink" x="0px" y="0px"
	 viewBox="0 0 500 500" style="enable-background:new 0 0 500 500;" xml:space="preserve">
<style type="text/css">
	.st0{fill:#FFFFFF;}
	.st1{fill:#F1F5F9;}
</style>
<line class="st0" x1="281" y1="50.7" x2="217.7" y2="124.9"/>
<line class="st0" x1="24" y1="53.6" x2="24" y2="217.3"/>
<g>
	<g>
		<path class="st1" d="M487.8,347.4V84.2c0-1.8-0.2-3.5-0.5-5.2L370,213L487.8,347.4z"/>
	</g>
	<g>
		<path class="st1" d="M13.9,70c-2.3,4.2-3.6,9-3.6,14.3v295.8L148,223L13.9,70z"/>
	</g>
	<g>
		<path class="st1" d="M283.3,312c-7.7,8.7-17.8,13.5-28.7,13.5c-10.8,0-21-4.8-28.7-13.5l-66.3-75.6l-148.9,170
			c2.2,12.6,11.8,22.1,23.5,22.1h429.5c13.2,0,24-12.3,24-27.4v-26.9L358.3,226.4L283.3,312z"/>
	</g>
	<g>
		<path class="st1" d="M165.6,216.3l5.9,6.7l66.3,75.6c4.7,5.3,10.8,8,17,8c6.1,0,12.3-2.7,17-8l75-85.6l5.9-6.7l5.9-6.7l120-137
			c-4-3.5-9-5.7-14.5-5.7H34.3c-2.5,0-4.9,0.6-7.2,1.4l132.6,151.3L165.6,216.3z"/>
	</g>
</g>
</svg>
