<?xml version="1.0" encoding="utf-8"?>
<!-- Generator: Adobe Illustrator 19.2.1, SVG Export Plug-In . SVG Version: 6.00 Build 0)  -->
<svg version="1.1" id="Layer_1" xmlns="http://www.w3.org/2000/svg" xmlns:xlink="http://www.w3.org/1999/xlink" x="0px" y="0px"
	 viewBox="0 0 500 500" style="enable-background:new 0 0 500 500;" xml:space="preserve">
<style type="text/css">
	.st0{fill:#21395A;}
</style>
<path class="st0" d="M250,8.8C116.1,8.8,7.6,116.9,7.6,250.1S116.1,491.4,250,491.4c133.9,0,242.4-108,242.4-241.3
	S383.9,8.8,250,8.8z M219.7,69.2h60.6v135.7h-60.6V69.2z M250,385.9c-75.3,0-136.3-60.8-136.3-135.7c0-47.1,24.1-88.6,60.7-112.9
	l25.2,37.7c-24.4,16.2-40.5,43.9-40.5,75.2c0,49.9,40.8,90.5,90.9,90.5c50.1,0,90.9-40.6,90.9-90.5c0-31.3-16.1-59-40.5-75.2
	l25.2-37.7c36.6,24.3,60.7,65.8,60.7,112.9C386.3,325.1,325.3,385.9,250,385.9z"/>
</svg>
