<?xml version="1.0" encoding="utf-8"?>
<!-- Generator: Adobe Illustrator 19.2.1, SVG Export Plug-In . SVG Version: 6.00 Build 0)  -->
<svg version="1.1" id="Capa_1" xmlns="http://www.w3.org/2000/svg" xmlns:xlink="http://www.w3.org/1999/xlink" x="0px" y="0px"
	 viewBox="0 0 600 600" style="enable-background:new 0 0 600 600;" xml:space="preserve">
<style type="text/css">
	.st0{fill:#F1F5F9;}
</style>
<g>
	<g>
		<path class="st0" d="M305.5,170.3L104,336.4c0,0.2-0.1,0.6-0.2,1c-0.1,0.5-0.2,0.8-0.2,1v168.2c0,6.1,2.2,11.3,6.7,15.8
			c4.4,4.4,9.7,6.7,15.8,6.7h134.6V394.6h89.7v134.6h134.6c6.1,0,11.3-2.2,15.8-6.7c4.4-4.4,6.7-9.7,6.7-15.8V338.5
			c0-0.9-0.1-1.6-0.4-2.1L305.5,170.3z"/>
		<path class="st0" d="M584.1,298.6l-76.7-63.8v-143c0-3.3-1.1-6-3.2-8.1c-2.1-2.1-4.8-3.2-8.1-3.2h-67.3c-3.3,0-6,1.1-8.1,3.2
			c-2.1,2.1-3.1,4.8-3.1,8.1v68.3l-85.5-71.5c-7.5-6.1-16.3-9.1-26.6-9.1c-10.3,0-19.2,3-26.6,9.1l-252,209.9
			c-2.3,1.9-3.6,4.4-3.9,7.5c-0.2,3.2,0.6,5.9,2.5,8.2l21.7,25.9c1.9,2.1,4.3,3.4,7.4,3.9c2.8,0.2,5.6-0.6,8.4-2.5l242.5-202.2
			L548,341.7c1.9,1.6,4.3,2.4,7.4,2.4h1.1c3-0.5,5.5-1.8,7.4-3.9l21.7-25.9c1.9-2.3,2.7-5.1,2.4-8.2
			C587.7,303,586.4,300.5,584.1,298.6z"/>
	</g>
</g>
</svg>
