<?xml version="1.0" encoding="utf-8"?>
<!-- Generator: Adobe Illustrator 21.0.0, SVG Export Plug-In . SVG Version: 6.00 Build 0)  -->
<svg version="1.1" id="Layer_1" xmlns="http://www.w3.org/2000/svg" xmlns:xlink="http://www.w3.org/1999/xlink" x="0px" y="0px"
	 viewBox="0 0 666.3 548.8" style="enable-background:new 0 0 666.3 548.8;" xml:space="preserve">
<style type="text/css">
	.st0{fill:#3B4B55;}
	.st1{fill:#21395A;}
</style>
<g>
	<path class="st0" d="M863.8-14.4c-2.7,0-5-1.5-6.2-3.6h-11.8V0.1c0,9.9,8.1,17.9,18,17.9c10,0,18-8,18-17.9V-18H870
		C868.8-15.9,866.5-14.4,863.8-14.4z"/>
	<path class="st0" d="M856.6-27.1c0-4,3.2-7.2,7.2-7.2c4,0,7.2,3.2,7.2,7.2v5.4h10.8l-0.3-3.6c-1.6-8.2-8.9-14.4-17.7-14.4
		c-8.8,0-16.1,6.2-17.7,14.4l-0.3,3.6h10.8V-27.1z"/>
	<path class="st0" d="M860.2-27.1v5.4c0,2,1.6,3.6,3.6,3.6c2,0,3.6-1.6,3.6-3.6v-5.4c0-2-1.6-3.6-3.6-3.6
		C861.8-30.7,860.2-29,860.2-27.1z"/>
</g>
<path class="st1" d="M500.9,96.5c-20.9-22.1-45.3-39.5-72.4-51.6c-28.1-12.6-58-18.9-88.7-18.9c-30.7,0-60.6,6.4-88.7,18.9
	c-27.1,12.1-51.5,29.5-72.4,51.6c-20.9,22.1-37.3,47.9-48.8,76.5C118,202.8,112,234.3,112,266.8c0,32.5,6,64,17.9,93.7
	c11.5,28.7,27.9,54.4,48.8,76.5c20.9,22.1,45.3,39.5,72.4,51.6c28.1,12.6,58,18.9,88.7,18.9c30.7,0,60.6-6.4,88.7-18.9
	c27.1-12.1,51.5-29.5,72.4-51.6c20.9-22.1,37.3-47.9,48.8-76.5c11.9-29.7,17.9-61.2,17.9-93.7c0-32.5-6-64-17.9-93.7
	C538.3,144.4,521.8,118.6,500.9,96.5z M339.8,433.6c-87.1,0-157.9-74.9-157.9-166.9S252.8,99.9,339.8,99.9
	c87.1,0,157.9,74.9,157.9,166.9S426.9,433.6,339.8,433.6z"/>
<ellipse class="st1" cx="339.8" cy="266.8" rx="140.6" ry="148.6"/>
<path class="st1" d="M90.2,11.4L85.6,133h-2.8L75.9,11.4l-1.8,0L68.6,133h-3.3L59.8,11.4l-1.8,0L51.2,133h-2.9L43.7,11.4l-1.8,0
	l-9.3,151.9l0.6,0.3c23.4,11,27.2,32.5,27.2,32.6c1.8,146.7-14.2,316.5-14.3,318.2h0v0.1c0,5,10.7,7.8,20.9,7.8
	c10.1,0,20.9-2.7,20.9-7.8v-0.1c0-0.1,0-0.3,0-0.4c-0.9-9.3-16-174.5-14.3-317.6c0-0.2,3.8-21.7,27.3-32.8l0.6-0.3L92,11.4
	L90.2,11.4z"/>
<path class="st1" d="M623,28.9c-1.6-10.7-3.6-16.5-6.9-17.3c-4.8-1.3-11.3,16.1-11.9,17.3c-35.7,95.3-22.2,218.4-6.2,234.8
	l-13.8,250.9v0.1c0,4.9,11.4,7.5,22.1,7.5c10.7,0,22.1-2.6,22.1-7.5v0L621,263C632.6,72.8,623.2,29.8,623,28.9z"/>
</svg>
