<?xml version="1.0" encoding="utf-8"?>
<!-- Generator: Adobe Illustrator 19.2.1, SVG Export Plug-In . SVG Version: 6.00 Build 0)  -->
<svg version="1.1" id="Capa_1" xmlns="http://www.w3.org/2000/svg" xmlns:xlink="http://www.w3.org/1999/xlink" x="0px" y="0px"
	 viewBox="0 0 600 600" style="enable-background:new 0 0 600 600;" xml:space="preserve">
<style type="text/css">
	.st0{fill:#E4EAE6;}
</style>
<g>
	<g>
		<path class="st0" d="M515.4,139.2V67.6H14v393.9c0,0,0,71.6,71.6,71.6h447.7c0,0,53.7-1.1,53.7-71.6V139.2H515.4z M85.6,497.4
			c-35.8,0-35.8-35.8-35.8-35.8V103.4h429.8v358.1c0,16.5,5.1,27.9,12.1,35.8H85.6z"/>
		<rect x="85.6" y="175.1" class="st0" width="358.1" height="35.8"/>
		<rect x="282.6" y="389.9" class="st0" width="125.3" height="35.8"/>
		<rect x="282.6" y="318.3" class="st0" width="161.2" height="35.8"/>
		<rect x="282.6" y="246.7" class="st0" width="161.2" height="35.8"/>
		<rect x="85.6" y="246.7" class="st0" width="161.2" height="179.1"/>
	</g>
</g>
</svg>
