<?xml version="1.0" encoding="utf-8"?>
<!-- Generator: Adobe Illustrator 19.2.1, SVG Export Plug-In . SVG Version: 6.00 Build 0)  -->
<svg version="1.1" id="Capa_1" xmlns="http://www.w3.org/2000/svg" xmlns:xlink="http://www.w3.org/1999/xlink" x="0px" y="0px"
	 viewBox="0 0 600 600" style="enable-background:new 0 0 600 600;" xml:space="preserve">
<style type="text/css">
	.st0{fill:#F1F5F9;}
</style>
<g>
	<path id="_x3C_Compound_Path_x3E__5_" class="st0" d="M503.6,128.5h-52v-32c0-45.3-37-82.3-82.3-82.3h-144
		c-45.2,0-82.3,37-82.3,82.3v32H91.1c-45.3,0-82.3,31.3-82.3,76.6v303.9c0,45.2,37,82.3,82.3,82.3h412.5c45.2,0,82.2-37,82.2-82.3
		V205C585.8,159.8,548.8,128.5,503.6,128.5z M187.1,96.5c0-20.2,18-38.2,38.2-38.2h144c20.1,0,38.2,18,38.2,38.2v32H187.1V96.5z
		 M429.5,414.9h-88.2v88.2h-88.1v-88.2h-88.1V304.8h88.2v-88.1h88.1v88.1h88.2L429.5,414.9L429.5,414.9z"/>
</g>
</svg>
