<?xml version="1.0" encoding="utf-8"?>
<!-- Generator: Adobe Illustrator 19.2.1, SVG Export Plug-In . SVG Version: 6.00 Build 0)  -->
<svg version="1.1" id="Layer_1" xmlns="http://www.w3.org/2000/svg" xmlns:xlink="http://www.w3.org/1999/xlink" x="0px" y="0px"
	 viewBox="0 0 600 600" style="enable-background:new 0 0 600 600;" xml:space="preserve">
<style type="text/css">
	.st0{fill:#F1F5F9;}
</style>
<g id="XMLID_25_">
	<path id="XMLID_26_" class="st0" d="M302.8,58.7c-9.4,0-18.8,0.5-28.1,1.5c3.1-5.1,4.3-10.9,3.1-16.4
		c-2.5-11.6-14.2-19.3-29.3-19.3c-3.1,0-6.2,0.3-9.3,1c-8.7,1.9-16.4,6.1-21.6,11.8c-5.5,6.2-7.8,13.5-6.2,20.6
		c1.2,5.6,4.6,10.4,9.7,13.9c-49.6,16.4-94,47.9-125.9,89.7C60,207.4,41.4,262.2,41.4,320.1c0,144.1,117.3,261.4,261.4,261.4
		s261.4-117.3,261.4-261.4C564.2,176,446.9,58.7,302.8,58.7z M248.5,42.2c6.8,0,11.4,2.7,12,5.3c0.3,1.5-0.5,3.3-2.2,5.2
		c-4.2-2-9.1-2.6-13.8-1.6c-4.6,1-8.8,3.5-11.9,7c-2.2-1-3.7-2.4-4-3.8c-0.3-1.6,0.7-3.8,2.9-5.9c2.8-2.6,6.9-4.7,11.4-5.6
		C244.7,42.4,246.6,42.2,248.5,42.2z M359.5,501.7l-20.8-33.8c-1-1.6-2.9-2.5-4.8-2.1c-1.9,0.4-3.3,1.9-3.6,3.9l-5.3,39.3
		c-7.3,0.8-14.8,1.3-22.1,1.3c-49.4,0-95.9-18.7-131.5-52.8c0.4-0.1,0.7-0.4,1.1-0.6l103.1-78.4c6.9,3.2,14.4,5.2,21.9,5.9
		l26.2,54.9c0.9,1.9,3,2.9,5.1,2.5c2.1-0.4,3.6-2.2,3.6-4.3l1.6-60.8c5.8-3.2,11-7.1,15.5-11.9l30.9,11c2,0.7,4.2,0,5.4-1.8
		c1.2-1.8,0.9-4.1-0.5-5.6l-22.6-23.8c2.5-6.1,4-12.5,4.6-19l54.9-26.2c1.9-0.9,2.9-3,2.5-5.1c-0.4-2.1-2.2-3.6-4.3-3.6l-56.1-1.5
		l75.6-99.5c0.3-0.3,0.5-0.7,0.6-1.1c20.4,21.3,35.6,47,44.2,74.8l-33.8,20.8c-1.6,1-2.5,2.9-2.1,4.8c0.4,1.9,1.9,3.3,3.9,3.6
		l39.3,5.3c0.9,7.4,1.3,14.8,1.3,22.1c0,50.8-19.8,98.6-55.7,134.5C415.5,476.4,388.6,492.7,359.5,501.7z M157.1,351.1
		c-0.4-1.9-1.9-3.3-3.9-3.6l-39.3-5.3c-0.9-7.4-1.3-14.8-1.3-22.1c0-50.8,19.8-98.6,55.7-134.5c21.8-21.8,48.7-38.1,77.8-47.2
		l20.8,33.8c1,1.6,3,2.5,4.8,2.1c1.9-0.4,3.3-1.9,3.6-3.9l5.3-39.3c7.3-0.8,14.8-1.3,22.1-1.3c49.4,0,95.9,18.7,131.5,52.8
		c-0.4,0.1-0.7,0.4-1.1,0.6l-103.1,78.4c-6.9-3.2-14.4-5.2-21.9-5.9L282,200.9c-0.9-1.9-3-2.9-5.1-2.5c-2.1,0.4-3.6,2.2-3.6,4.3
		l-1.6,60.8c-5.8,3.2-11,7.1-15.5,11.9l-30.9-11c-2-0.7-4.2,0-5.4,1.8c-1.2,1.8-0.9,4.1,0.5,5.6l22.6,23.8c-2.5,6.1-4,12.5-4.6,19
		l-54.9,26.2c-1.9,0.9-2.9,3-2.5,5.1s2.2,3.6,4.3,3.6l56.1,1.5L166,450.5c-0.3,0.3-0.5,0.7-0.6,1.1c-20.4-21.3-35.6-47-44.2-74.8
		l33.8-20.8C156.6,354.9,157.5,353,157.1,351.1z M327.2,360c-4.5,2.8-9.5,4.8-14.7,5.9c-5.1,1.1-10.2,1.3-15.5,0.7
		c-0.2,0-0.4-0.1-0.6-0.1c-1.4-0.2-2.7-0.4-4.1-0.7l31.4-23.8c0.3-0.3,0.6-0.5,0.9-0.9l23.8-31.3c0.1,0.2,0.1,0.5,0.2,0.7
		C352.7,329.8,344.1,349.7,327.2,360z M293.1,274.3c3.2-0.7,6.5-1,9.8-1c1.9,0,3.8,0.1,5.8,0.4c0.2,0,0.3,0.1,0.5,0.1
		c1.4,0.2,2.7,0.4,4.1,0.8l-31.4,23.8c-0.3,0.3-0.6,0.5-0.9,0.9l-23.8,31.4c-0.1-0.2-0.1-0.5-0.2-0.7
		C251.7,304.6,267.8,279.7,293.1,274.3z"/>
</g>
</svg>
