<?xml version="1.0" encoding="utf-8"?>
<!-- Generator: Adobe Illustrator 19.2.1, SVG Export Plug-In . SVG Version: 6.00 Build 0)  -->
<svg version="1.1" id="Capa_1" xmlns="http://www.w3.org/2000/svg" xmlns:xlink="http://www.w3.org/1999/xlink" x="0px" y="0px"
	 viewBox="0 0 600 600" style="enable-background:new 0 0 600 600;" xml:space="preserve">
<style type="text/css">
	.st0{fill:#4F679E;}
</style>
<g>
	<g>
		<path class="st0" d="M235.6,294.5L235.6,294.5c0.2,0,0.5,0,0.7,0s0.5,0,0.7,0l0,0c121.2-1.3,103.6-163,103.6-163
			c-5-108.1-95.3-107.1-104.3-106.8c-8.9-0.4-99.3-1.3-104.3,106.8C132,131.5,114.4,293.3,235.6,294.5z"/>
		<path class="st0" d="M314.6,324.8l-42,132.9L248,387.9c43.1-60.1-3.1-63.2-11.2-63.2l0,0c-0.1,0-0.2,0-0.2,0c-0.1,0-0.2,0-0.2,0
			l0,0c-8.3,0.1-54.3,3.1-11.2,63.2l-24.6,69.7l-42-132.9c0,0-52.8,25.6-100,55.3c-35.7,22.4-42.3,46.5-43.3,81.4L15,579.2h221.8
			h69.9c-0.8-2.8-1.3-5.9-1.3-9V461.3c0-18.3,14.9-33.2,33.2-33.2h41c3.1,0,5.9,0.5,8.7,1.2v-17.1c0-15.9,11.2-29.2,26.2-32.4
			C367.3,350.3,314.6,324.8,314.6,324.8z"/>
		<path class="st0" d="M379.5,452.4h-41c-4.8,0-8.9,4-8.9,8.9v17v74.9v17c0,4.8,4,8.9,8.9,8.9h41c4.8,0,8.9-4,8.9-8.9v-17v-74.9v-17
			C388.3,456.4,384.4,452.4,379.5,452.4z"/>
		<path class="st0" d="M462.4,403.4h-41c-4.8,0-8.9,3.9-8.9,8.9v66v25.9v66c0,4.8,4,8.9,8.9,8.9h41c4.8,0,8.9-4,8.9-8.9v-66v-25.9
			v-66C471.1,407.4,467.2,403.4,462.4,403.4z"/>
		<path class="st0" d="M587.9,346.4l-57.6-92.6c-2.6-4.1-8.7-4.1-11.3,0l-57.6,92.6c-2.7,4.5,0.5,10.2,5.7,10.2h28.3v213.5
			c0,4.8,4,8.9,8.9,8.9h41c4.7,0,8.5-3.7,8.7-8.3h0.1V429.5v-4v-69h28.3C587.6,356.6,590.8,350.9,587.9,346.4z"/>
	</g>
</g>
</svg>
