<?xml version="1.0" encoding="utf-8"?>
<!-- Generator: Adobe Illustrator 19.2.1, SVG Export Plug-In . SVG Version: 6.00 Build 0)  -->
<svg version="1.1" id="Capa_1" xmlns="http://www.w3.org/2000/svg" xmlns:xlink="http://www.w3.org/1999/xlink" x="0px" y="0px"
	 viewBox="0 0 600 600" style="enable-background:new 0 0 600 600;" xml:space="preserve">
<style type="text/css">
	.st0{fill:#F1F5F9;}
</style>
<g>
	<g>
		<path class="st0" d="M493.8,392.3c-4.6-11-15.7-18.1-26.2-22.4l-35.2-16.2c0-25.9-0.3-154.6-0.1-168.2c0.2-21.1-2.3-39.9-7.8-56.2
			l43.9-15.8l0.1,40.5l-3,0c-2.1-0.2-3.9,1.3-4.1,3.4l-3.9,33.5c-0.1,1,0.2,2,0.8,2.8c0.6,0.8,1.6,1.3,2.6,1.4l30.6,0
			c1-0.1,2-0.6,2.6-1.4c0.7-0.8,0.9-1.8,0.8-2.9c-0.8-6.6-1.5-13.1-2.3-19.7l-1.6-13.8c-0.2-2.1-2.1-3.5-4.1-3.4l-3,0l0.1-46.2
			l1.6-0.6l5.2-1.9c4.4-1.6,7.3-5.8,7.3-10.4c0-4.7-2.9-8.8-7.3-10.4L307.3,18.4c-2.4-0.9-5.1-0.9-7.5,0L116.3,84.6
			c-4.4,1.6-7.3,5.8-7.3,10.4s2.9,8.8,7.3,10.4l66.5,24c-5.8,16.7-8.5,36-8.2,57.6l0,166.7L139.4,370c-10.6,4.3-21,10.9-26.2,22.4
			c0,0-77.6,198.3-35.5,198.3h451.8C571.5,590.7,493.8,392.3,493.8,392.3z M374.1,375.3c0,0-59.1,19.6-70.5,88.4
			c0,0.2-0.1,0.2-0.2,0c-11.4-68.8-70.5-88.4-70.5-88.4l38.7-38.5C217,312.3,202.5,229,202.5,229c-3.1-12-3.5-20.3-3.5-20.3
			c27.3-1.9,122.8-10.1,129.3-41c9,16.6,56.6,58.4,75.9,61.6c0,0-18.7,82.4-69.8,107.5L374.1,375.3z"/>
	</g>
</g>
</svg>
