<?xml version="1.0" encoding="utf-8"?>
<!-- Generator: Adobe Illustrator 19.2.1, SVG Export Plug-In . SVG Version: 6.00 Build 0)  -->
<svg version="1.1" id="Capa_1" xmlns="http://www.w3.org/2000/svg" xmlns:xlink="http://www.w3.org/1999/xlink" x="0px" y="0px"
	 viewBox="0 0 600 600" style="enable-background:new 0 0 600 600;" xml:space="preserve">
<style type="text/css">
	.st0{fill:#4F679E;}
</style>
<g>
	<g>
		<path class="st0" d="M226.2,234.8c0-20.7-23.8-48.6-55.9-56.7c13.4-9,22.7-26.8,22.7-42.9c0-22.7-18.3-41-41-41
			c-22.6,0-41,18.3-41,41c0,16,9.2,33.8,22.7,42.9c-32.1,8.2-55.9,36-55.9,56.7C77.7,259.2,226.2,259.2,226.2,234.8z M148.6,190
			h-0.2l-6.8-7.8c3.3,1.2,6.7,1.9,10.3,1.9s7-0.7,10.3-1.9l-6.8,7.8h-0.2l17.5,42.3l-20.8,20.8l-20.8-20.8L148.6,190z"/>
		<path class="st0" d="M374.7,234.8c0-20.7-23.8-48.6-55.9-56.7c13.4-9,22.7-26.8,22.7-42.9c0-22.7-18.4-41-41-41s-41,18.3-41,41
			c0,16,9.2,33.8,22.7,42.9c-32.1,8.2-55.9,36-55.9,56.7C226.2,259.2,374.7,259.2,374.7,234.8z M297.1,190h-0.2l-6.8-7.8
			c3.3,1.2,6.7,1.9,10.3,1.9c3.6,0,7-0.7,10.3-1.9l-6.8,7.8h-0.2l17.5,42.3l-20.8,20.8l-20.8-20.8L297.1,190z"/>
		<path class="st0" d="M523.1,234.8c0-20.7-23.8-48.6-55.9-56.7c13.4-9,22.7-26.8,22.7-42.9c0-22.7-18.4-41-41-41s-41,18.3-41,41
			c0,16,9.2,33.8,22.7,42.9c-32.1,8.2-55.9,36-55.9,56.7C374.7,259.2,523.1,259.2,523.1,234.8z M445.6,190h-0.2l-6.8-7.8
			c3.3,1.2,6.7,1.9,10.3,1.9c3.5,0,6.9-0.7,10.3-1.9l-6.8,7.8h-0.2l17.5,42.3l-20.8,20.8l-20.8-20.8L445.6,190z"/>
		<polygon class="st0" points="591.4,314.9 591.4,288.1 537.3,253.1 575.5,288.1 25.3,288.1 63.5,253.1 9.4,288.1 9.4,314.9 
			63.5,314.9 63.5,476.4 50.1,476.4 50.1,491.5 30.1,491.5 30.1,506.4 570.8,506.4 570.8,491.5 550.8,491.5 550.8,476.4 
			537.3,476.4 537.3,314.9 		"/>
	</g>
</g>
</svg>
