<?xml version="1.0" encoding="utf-8"?>
<!-- Generator: Adobe Illustrator 19.2.1, SVG Export Plug-In . SVG Version: 6.00 Build 0)  -->
<svg version="1.1" id="Layer_1" xmlns="http://www.w3.org/2000/svg" xmlns:xlink="http://www.w3.org/1999/xlink" x="0px" y="0px"
	 viewBox="0 0 600 600" style="enable-background:new 0 0 600 600;" xml:space="preserve">
<style type="text/css">
	.st0{fill:#4F679E;}
</style>
<g>
	<g>
		<polygon class="st0" points="292.2,405.9 281.5,424.5 310.4,474.8 331.9,474.8 		"/>
	</g>
</g>
<g>
	<g>
		<polygon class="st0" points="242.1,424.5 242.1,424.5 212.7,373.6 201.2,353.6 131.4,474.8 271,474.8 		"/>
	</g>
</g>
<g>
	<g>
		<path class="st0" d="M181.5,241c-28.2,0-51.2,23-51.2,51.2c0,23.7,16.2,43.9,38.4,49.6l32.6-56.5l21.5,37.3
			c6.4-8.7,10-19.2,10-30.4C232.7,263.9,209.7,241,181.5,241z"/>
	</g>
</g>
<g>
	<g>
		<path class="st0" d="M278.9,259.8l0.1-14l9.9-9.9L449.7,75.1V14H13.5v574.5h436.2V232.1l-82.3,82.3l-9.9,9.9l-14,0.1l-30.5,0.3
			l-34.7,0.3l0.3-34.7L278.9,259.8z M124.1,88.5h215v34.1l0,0h-215C124.1,122.6,124.1,88.5,124.1,88.5z M292.2,337.6L391,508.9
			h-60.9h-39.4H72.3L151.2,372c-32.3-12.2-55.1-43.5-55.1-79.8c0-47.1,38.3-85.3,85.3-85.3s85.3,38.3,85.3,85.3
			c0,23.5-9.6,45.5-26.2,61.5l21.2,36.7L292.2,337.6z M148.6,179.5v-34.1h166.2v34.1H148.6z"/>
	</g>
</g>
<g>
	<g>
		<path class="st0" d="M582.7,20.6c-4-4-9.4-6.3-15.1-6.3c-5.7,0-11.1,2.2-15.1,6.3l-20.2,20.2L562.6,71l20.2-20.2
			c4-4,6.3-9.4,6.3-15.1C589,30,586.8,24.6,582.7,20.6z"/>
	</g>
</g>
<g>
	<g>
		<polygon class="st0" points="508.2,64.9 313,260.1 312.7,290.6 343.3,290.3 538.4,95.2 		"/>
	</g>
</g>
</svg>
