<?xml version="1.0" encoding="utf-8"?>
<!-- Generator: Adobe Illustrator 19.2.1, SVG Export Plug-In . SVG Version: 6.00 Build 0)  -->
<svg version="1.1" id="Layer_1" xmlns="http://www.w3.org/2000/svg" xmlns:xlink="http://www.w3.org/1999/xlink" x="0px" y="0px"
	 viewBox="0 0 500 500" style="enable-background:new 0 0 500 500;" xml:space="preserve">
<style type="text/css">
	.st0{fill:#21395A;}
</style>
<g>
	<path class="st0" d="M29,124.2c0-44-2-79.4-4-112h79.3l4,58.9h2C146.5,29.3,203.7,4.4,283,4.4c117.6-0.1,206,70.2,206,174.4
		c0,123.4-106.5,184.4-221,184.4c-64.3,0-120.5-19.9-149.6-53.9h-2v186.5H29V124.2z M116.4,215.7c0,9.2,2,17.7,4,25.5
		c16.1,43.3,69.3,73,132.6,73c93.4,0,147.6-53.9,147.6-132.6C400.6,112.8,349.4,54,256,54c-60.3,0-116.5,30.5-133.6,77.3
		c-3,7.8-6,17-6,25.5C116.4,156.8,116.4,215.7,116.4,215.7z"/>
</g>
</svg>
