<?xml version="1.0" encoding="utf-8"?>
<!-- Generator: Adobe Illustrator 19.2.1, SVG Export Plug-In . SVG Version: 6.00 Build 0)  -->
<svg version="1.1" id="Layer_1" xmlns="http://www.w3.org/2000/svg" xmlns:xlink="http://www.w3.org/1999/xlink" x="0px" y="0px"
	 viewBox="0 0 600 600" style="enable-background:new 0 0 600 600;" xml:space="preserve">
<style type="text/css">
	.st0{fill:#DBE1E7;}
</style>
<g>
	<path class="st0" d="M312.3,224.9c-39.9,0-72.3,32.4-72.3,72.3c0,39.9,32.4,72.3,72.3,72.3s72.3-32.4,72.3-72.3
		C384.6,257.3,352.2,224.9,312.3,224.9z"/>
	<path class="st0" d="M312.3,132.3c-91,0-164.9,74-164.9,164.9c0,90.9,74,164.9,164.9,164.9c32.6,0,62.9-9.6,88.5-26
		c7.3,4.5,15.9,7.2,25.1,7.2c26.6,0,48.2-21.6,48.2-48.2c0-11.7-4.4-22.3-11.4-30.7c9.2-20.6,14.5-43.3,14.5-67.2
		C477.3,206.3,403.3,132.3,312.3,132.3z M184.7,297.2c0-70.4,57.3-127.7,127.7-127.7S440,226.8,440,297.2c0,17.8-3.7,34.7-10.3,50.1
		c-1.3-0.1-2.5-0.4-3.8-0.4c-26.6,0-48.2,21.6-48.2,48.2c0,3.7,0.5,7.2,1.3,10.7c-19.4,12-42.2,19-66.7,19
		C241.9,424.9,184.7,367.6,184.7,297.2z"/>
	<path class="st0" d="M312.3,26c-81.5,0-154.6,36.3-204.3,93.5c-2.8-0.6-5.7-0.9-8.7-0.9c-23.7,0-43,19.3-43,43
		c0,9.5,3.2,18.3,8.5,25.4C49.7,220.7,41.2,258,41.2,297.2c0,1.4,0.2,2.8,0.2,4.3c-17.9,9-30.2,27.2-30.2,48.5
		c0,29.2,23.2,53,52.1,54.2c41.6,96.4,137.5,164.1,249.1,164.1c149.5,0,271.2-121.6,271.2-271.2C583.5,147.7,461.9,26,312.3,26z
		 M312.3,531.1c-94.9,0-176.7-57-213.3-138.4c12.7-10,21.1-25.3,21.1-42.7c0-25.6-17.8-47-41.7-52.8c0,0,0,0,0,0
		c0-33,6.9-64.3,19.3-92.8c0.5,0,1,0.2,1.6,0.2c23.7,0,43-19.3,43-43c0-7-1.8-13.4-4.8-19.3C180.4,94,242.8,63.3,312.3,63.3
		c129,0,233.9,104.9,233.9,233.9C546.3,426.2,441.3,531.1,312.3,531.1z"/>
</g>
</svg>
