<?xml version="1.0" encoding="utf-8"?>
<!-- Generator: Adobe Illustrator 19.2.1, SVG Export Plug-In . SVG Version: 6.00 Build 0)  -->
<svg version="1.1" id="Capa_1" xmlns="http://www.w3.org/2000/svg" xmlns:xlink="http://www.w3.org/1999/xlink" x="0px" y="0px"
	 viewBox="0 0 600 600" style="enable-background:new 0 0 600 600;" xml:space="preserve">
<style type="text/css">
	.st0{fill:#FFFFFF;}
</style>
<g>
	<path class="st0" d="M589.3,117.3c-0.2-58.1-47.4-105.2-105.5-105.2H117c-28,0-54.9,11.2-74.7,31C22.5,63.1,11.4,90,11.5,118
		l0.9,279.9c0.2,58.1,47.4,104.1,105.5,104.1h104.2l49.3,71.7c6.6,9.5,17.5,15.7,29.2,15.8c11.6,0,22.5-6.4,29.2-15.9l49.9-71.5
		h105.2c28,0,54.9-10.1,74.7-30c19.8-19.9,30.9-46.3,30.8-74.3L589.3,117.3z M292.9,423.6c-21.9,0-36.9-16.2-36.9-37.7
		c0-22,15.3-37.7,36.9-37.7c22.4,0,36.9,15.7,37.3,37.7C330.2,407.5,315.3,423.6,292.9,423.6z M346.3,246.8
		C329.6,265.4,326,283,326,303.3c0,15.1-12.3,27.4-27.4,27.4h-11.3c-15,0-27.1-12-27.4-27l0-2.9c-1.4-23.1,6.3-47.1,26.7-71.5
		c14.5-17.2,26.2-31.9,26.2-47.3c0-15.8-10.4-26.4-33-27.3c-6.9,0-14.5,1.2-21.8,3.2c-13.4,3.7-27.4-3.9-31.5-17.2
		c-4.2-13.4,3.2-27.7,16.5-32.1c14.6-4.8,32.5-8.3,52.2-8.3c59.7,0,88.2,33,88.2,70.5C383.4,205.2,363.5,227.8,346.3,246.8z"/>
</g>
</svg>
