<?xml version="1.0" encoding="utf-8"?>
<!-- Generator: Adobe Illustrator 19.2.1, SVG Export Plug-In . SVG Version: 6.00 Build 0)  -->
<svg version="1.1" id="Capa_1" xmlns="http://www.w3.org/2000/svg" xmlns:xlink="http://www.w3.org/1999/xlink" x="0px" y="0px"
	 viewBox="0 0 600 600" style="enable-background:new 0 0 600 600;" xml:space="preserve">
<style type="text/css">
	.st0{fill:#F1F5F9;}
</style>
<g>
	<path class="st0" d="M319.5,56.7v-14c0-10.3-7.7-18.7-17.3-18.7c-9.6,0-17.3,8.4-17.3,18.7v14C140.3,64.5,24.3,170.3,13,303.4
		c14.1-10.9,35.4-17.8,59.3-17.8c37.2,0,68.1,16.8,75.1,39.1h3.1c7.2-22.2,38.1-38.9,75.1-38.9c23.9,0,45.3,7,59.3,18v187.4
		c0,26.1-19.7,47.3-43.9,47.3c-24.2,0-43.9-21.2-43.9-47.3c0-10.3-7.7-18.7-17.3-18.7c-9.6,0-17.3,8.4-17.3,18.7
		c0,46.7,35.2,84.7,78.5,84.7s78.5-38,78.5-84.7V303.5c14-10.9,35.4-17.9,59.3-17.9c37.2,0,68.1,16.8,75.1,39.1h3.1
		c7.2-22.2,38.1-38.9,75.1-38.9c23.9,0,45.2,7,59.3,17.9C580.2,170.5,464.1,64.6,319.5,56.7z"/>
</g>
</svg>
