<?xml version="1.0" encoding="utf-8"?>
<!-- Generator: Adobe Illustrator 19.2.1, SVG Export Plug-In . SVG Version: 6.00 Build 0)  -->
<svg version="1.1" id="Capa_1" xmlns="http://www.w3.org/2000/svg" xmlns:xlink="http://www.w3.org/1999/xlink" x="0px" y="0px"
	 viewBox="0 0 600 600" style="enable-background:new 0 0 600 600;" xml:space="preserve">
<style type="text/css">
	.st0{fill:#21395A;}
</style>
<g>
	<path class="st0" d="M300,14C142,14,14,142,14,300s128,286,286,286s286-128,286-286S458,14,300,14z M192.8,300
		c0-59.2,48-107.2,107.2-107.2s107.2,48,107.2,107.2s-48,107.2-107.2,107.2S192.8,359.2,192.8,300z M531.2,395.8L531.2,395.8
		l-99.1-41.1c7-16.9,10.9-35.3,10.9-54.7s-3.9-37.9-10.9-54.7l68.2-28.3l30.9-12.8c12.2,29.5,19,61.9,19,95.8
		S543.5,366.3,531.2,395.8L531.2,395.8z M395.8,68.8L395.8,68.8L395.8,68.8l-41,99.1c-16.9-7-35.3-10.9-54.7-10.9
		c-19.4,0-37.9,3.9-54.7,10.9L226,121.4l-21.8-52.6c29.5-12.2,61.9-19,95.8-19C333.9,49.8,366.3,56.5,395.8,68.8z M68.8,204.2
		l52.6,21.8l46.5,19.2c-7,16.9-10.9,35.3-10.9,54.7s3.9,37.9,10.9,54.7l-99.1,41.1c-12.2-29.5-19-61.9-19-95.8
		S56.5,233.7,68.8,204.2z M204.2,531.2l12.8-30.9l28.3-68.2c16.9,7,35.3,10.9,54.7,10.9s37.9-3.9,54.7-10.9l41.1,99.1l0,0l0,0
		c-29.5,12.2-61.9,19-95.8,19S233.7,543.5,204.2,531.2z"/>
</g>
</svg>
