<?xml version="1.0" encoding="utf-8"?>
<!-- Generator: Adobe Illustrator 19.2.1, SVG Export Plug-In . SVG Version: 6.00 Build 0)  -->
<svg version="1.1" id="Layer_1" xmlns="http://www.w3.org/2000/svg" xmlns:xlink="http://www.w3.org/1999/xlink" x="0px" y="0px"
	 viewBox="0 0 500 500" style="enable-background:new 0 0 500 500;" xml:space="preserve">
<style type="text/css">
	.st0{fill:#F1F5F9;}
</style>
<g>
	<g>
		<path class="st0" d="M250,369.7c-13.3,0-26.3-3.9-37.7-11.3L87.5,277.1v139.9c0,41.4,72.8,74.9,162.5,74.9
			c89.8,0,162.6-33.5,162.6-74.9V277.1l-124.8,81.3C276.4,365.8,263.3,369.7,250,369.7z"/>
		<path class="st0" d="M484.4,155l-214-139.3c-6.3-4.1-13.3-6.1-20.4-6.1s-14.1,2-20.4,6.1L15.6,155c-5.7,3.7-9.2,10.3-9.2,17.4
			c0,7.1,3.5,13.6,9.2,17.4l214,139.3c6.2,4.1,13.3,6.1,20.4,6.1c7.1,0,14.1-2,20.4-6.1l214-139.3c5.7-3.7,9.2-10.3,9.2-17.4
			C493.6,165.3,490.1,158.7,484.4,155z"/>
	</g>
	<path class="st0" d="M473.5,472.4c3.9,0,7.6-1.9,10.1-5.1s3.4-7.4,2.6-11.5l-8.2-40.8c4.7-4.8,7.6-11.4,7.6-18.8
		c0-7.8-3.3-14.7-8.4-19.4V235.1l-32.9,21.4v120.4c-5.1,4.8-8.4,11.7-8.4,19.4c0,7.4,2.9,14,7.6,18.8l-8.2,40.8
		c-0.8,4,0.2,8.3,2.6,11.5c2.5,3.2,6.2,5.1,10.1,5.1L473.5,472.4L473.5,472.4z"/>
</g>
</svg>
