<?xml version="1.0" encoding="utf-8"?>
<!-- Generator: Adobe Illustrator 19.2.1, SVG Export Plug-In . SVG Version: 6.00 Build 0)  -->
<svg version="1.1" id="Layer_1" xmlns="http://www.w3.org/2000/svg" xmlns:xlink="http://www.w3.org/1999/xlink" x="0px" y="0px"
	 viewBox="0 0 600 600" style="enable-background:new 0 0 600 600;" xml:space="preserve">
<style type="text/css">
	.st0{fill:#DBE1E7;}
</style>
<g>
	<path class="st0" d="M299.9,313.1c22.2,0,40.3-19.8,40.3-44.1c0-20.3-12.7-37.3-29.7-42.4v42.4c0,6.4-4.7,11.5-10.5,11.5
		c-5.8,0-10.5-5.2-10.5-11.5v-42.4c-17.1,5.1-29.7,22.1-29.7,42.4C259.6,293.3,277.7,313.1,299.9,313.1z"/>
	<path class="st0" d="M565.9,534.8h-27.1v-180l-35.9-39.4h-57.1v219.4h-24.3v-246v-50.7L312,156c0-0.1,0.1-0.2,0.1-0.3v-29.7
		c26.7,8.4,43.6-31.9,73.5-7.2c0-22.5,0-48,0-70.5c-30.1-24.8-47,15.9-73.8,7.1C310.8,49,306,44,299.9,44c-6.7,0-12.1,6-12.1,13.3
		v98.4c0,0.1,0,0.2,0.1,0.3l-109.5,82.2v50.7v246H154V315.5H96.9L61,354.8v180H33.9c-9,0-16.2,8-16.2,17.8s7.2,17.8,16.2,17.8h532
		c9,0,16.2-8,16.2-17.8S574.8,534.8,565.9,534.8z M131,534.8H91.9V401.7c0-11.9,8.8-21.5,19.6-21.5c10.8,0,19.6,9.6,19.6,21.5V534.8
		z M299.9,198.1c35.6,0,64.6,31.8,64.6,70.8c0,39-29,70.8-64.6,70.8s-64.6-31.8-64.6-70.8C235.3,229.9,264.3,198.1,299.9,198.1z
		 M373.8,534.8h-24.3v-91.5c0-30-22.3-54.4-49.6-54.4s-49.6,24.4-49.6,54.4v91.5H226v-91.5c0-44.7,33.2-81.1,73.9-81.1
		s73.9,36.4,73.9,81.1V534.8z M507.9,534.8h-39.1V401.7c0-11.9,8.8-21.5,19.6-21.5c10.8,0,19.6,9.6,19.6,21.5V534.8z"/>
</g>
</svg>
