<?xml version="1.0" encoding="iso-8859-1"?>
<!-- Generator: Adobe Illustrator 19.0.0, SVG Export Plug-In . SVG Version: 6.00 Build 0)  -->
<svg xmlns="http://www.w3.org/2000/svg" xmlns:xlink="http://www.w3.org/1999/xlink" version="1.1" id="Capa_1" x="0px" y="0px" viewBox="0 0 512 512" style="enable-background:new 0 0 512 512;" xml:space="preserve" width="512px" height="512px">
<g>
	<g>
		<path d="M111.476,372.772l-86.761,76.283c-4.336,3.813-5.858,10.102-3.821,15.507c2.038,5.404,7.209,9.169,12.985,9.169h116.301    L111.476,372.772z" fill="#f1f5f9"/>
	</g>
</g>
<g>
	<g>
		<path d="M150.14,118.169l-33.134-21.844L91.642,59.871C83.962,48.834,72.445,41.449,59.21,39.074    c-13.237-2.375-26.601,0.548-37.638,8.227C-1.212,63.153-6.851,94.586,9,117.37l25.366,36.453l8.962,38.662    c1.123,4.847,4.578,8.822,9.222,10.61c1.744,0.672,3.572,1.002,5.389,1.002c3.022,0,6.018-0.913,8.568-2.687l83.942-58.404    c4.085-2.842,6.494-7.524,6.432-12.5C156.82,125.529,154.294,120.908,150.14,118.169z" fill="#f1f5f9"/>
	</g>
</g>
<g>
	<g>
		<path d="M487.285,449.055L167.376,167.78l-80.802,56.218l92.247,240.635c2.057,5.365,7.209,9.096,12.956,9.096h286.345    c5.775,0,10.946-3.765,12.984-9.169C493.144,459.157,491.622,452.868,487.285,449.055z" fill="#f1f5f9"/>
	</g>
</g>
<g>
	<g>
		<path d="M490.429,47.301c-11.037-7.679-24.402-10.602-37.638-8.227c-13.234,2.375-24.752,9.76-32.431,20.797l-25.364,36.454    l-33.134,21.844c-4.154,2.739-6.68,7.36-6.743,12.336c-0.062,4.976,2.347,9.658,6.432,12.5l83.942,58.404    c2.55,1.774,5.546,2.687,8.568,2.687c1.817,0,3.645-0.33,5.389-1.002c4.644-1.788,8.099-5.763,9.222-10.61l8.962-38.662    l25.364-36.455C518.852,94.586,513.212,63.153,490.429,47.301z" fill="#f1f5f9"/>
	</g>
</g>
<g>
	<g>
		<polygon points="344.624,167.78 278.718,225.726 387.947,321.765 425.426,223.998   " fill="#f1f5f9"/>
	</g>
</g>
<g>
</g>
<g>
</g>
<g>
</g>
<g>
</g>
<g>
</g>
<g>
</g>
<g>
</g>
<g>
</g>
<g>
</g>
<g>
</g>
<g>
</g>
<g>
</g>
<g>
</g>
<g>
</g>
<g>
</g>
</svg>
