<?xml version="1.0" encoding="utf-8"?>
<!-- Generator: Adobe Illustrator 19.2.1, SVG Export Plug-In . SVG Version: 6.00 Build 0)  -->
<svg version="1.1" id="Layer_1" xmlns="http://www.w3.org/2000/svg" xmlns:xlink="http://www.w3.org/1999/xlink" x="0px" y="0px"
	 viewBox="0 0 600 600" style="enable-background:new 0 0 600 600;" xml:space="preserve">
<style type="text/css">
	.st0{fill:#F1F5F9;}
</style>
<g transform="translate(0.000000,600.000000) scale(0.100000,-0.100000)">
	<path class="st0" d="M4423,5812c-67-24-128-66-161-113l-26-36l-111-7c-284-18-513-85-841-247l-182-89l-143,73
		c-239,122-475,206-689,243c-149,27-359,23-482-9c-296-78-484-281-542-586c-9-46-16-109-16-141c0-54-2-58-30-70
		c-41-17-127-111-153-167c-33-73-31-198,4-274c52-110,137-176,257-200c61-11,64-13,79-53c9-23,53-114,98-203l81-161l-58-109
		c-112-210-204-455-249-663c-20-89-23-135-23-295c0-179,2-195,28-280c43-143,88-218,186-316c68-68,103-95,170-128
		c218-107,483-118,806-36c167,43,327,106,525,206l156,80l83-47c250-141,580-255,820-284c497-60,849,154,946,575c30,126,26,362-9,525
		c-45,214-138,459-264,693l-42,78l73,142c186,364,279,715,263,995c-8,137-36,245-90,353c-42,84-43,87-29,125c21,61,12,177-19,244
		C4766,5785,4579,5868,4423,5812z M4609,5611c121-87,70-271-76-271c-138,0-203,159-105,253C4479,5642,4556,5650,4609,5611z
		 M2313,5431c140-32,320-96,465-166c74-36,133-67,131-69s-55-41-118-85c-379-271-756-650-1024-1028c-43-62-81-113-84-113
		c-7,0-123,246-123,260c0,7,18,30,40,51c130,126,138,338,18,475c-39,44-99,83-153,100l-40,12l2,62c11,261,174,458,428,514
		C1951,5466,2191,5459,2313,5431z M4190,5440c0-52,45-136,105-197c52-51,72-64,129-82c87-27,134-26,220,3l68,23l19-42
		c80-182,70-466-27-763c-53-163-174-428-187-411c-2,2-33,47-69,99c-251,363-636,753-1021,1033c-67,49-123,92-125,96
		c-4,10,197,104,324,152c175,66,359,106,492,108C4183,5460,4190,5458,4190,5440z M3225,5009c308-210,612-487,868-794
		c101-121,257-333,300-408l21-37l-86-127c-277-410-686-820-1107-1108l-113-78l-32,18c-63,37-274,190-371,270
		c-327,269-611,579-837,913l-76,114l26,41c243,379,600,768,965,1050c159,123,317,228,331,220C3120,5080,3170,5046,3225,5009z
		 M1426,4661c140-64,93-281-61-281c-126,0-197,146-117,242C1296,4679,1356,4693,1426,4661z M1756,3480c191-276,468-579,750-821
		c108-92,316-251,373-285c17-10,31-21,31-25c0-11-236-119-351-160c-449-160-808-134-994,73c-210,234-188,678,61,1207
		c31,64,58,111,63,105C1693,3569,1723,3527,1756,3480z M4689,3205c147-435,125-772-63-961c-187-187-526-209-956-62
		c-111,38-371,155-370,167c1,3,48,39,105,79c385,273,763,652,1039,1041l81,114l62-128C4621,3384,4667,3272,4689,3205z"/>
	<path class="st0" d="M2938,4256c-311-110-439-484-260-762c107-165,312-257,503-225c346,57,531,430,372,746c-56,109-193,218-317,251
		C3153,4288,3017,4284,2938,4256z M3214,4070c72-27,139-88,173-158c24-49,28-69,28-142c-1-104-28-163-105-233c-67-61-129-81-229-75
		c-88,5-142,29-200,87c-64,64-86,122-86,226c0,75,4,98,24,135c42,81,118,145,201,171C3069,4095,3158,4090,3214,4070z"/>
	<path class="st0" d="M665,1680c-256-29-418-158-456-364c-8-43-7-76,1-124c35-203,173-309,514-396c169-44,212-65,233-114
		c14-34,14-40-3-72c-24-45-75-70-142-70c-63,0-107,17-144,56c-30,33-58,102-58,145c0,35,16,33-240,18c-129-8-189-16-200-25
		c-28-27-4-148,52-258c61-121,165-202,313-242c87-24,367-31,460-11c209,45,337,147,406,325c32,82,32,233,0,315
		c-46,117-141,202-290,260c-42,16-151,49-243,72c-176,44-218,63-218,96c0,71,103,102,197,59c44-19,73-65,88-134l6-29l72,6
		c40,4,132,9,205,13c171,9,177,13,155,112c-54,237-217,352-520,366C794,1686,709,1685,665,1680z"/>
	<path class="st0" d="M1492,1648c-8-8-12-63-12-183c0-154,2-174,18-188c16-15,46-17,210-17h192V762c0-471,1-500,18-515
		c16-15,47-17,224-17c186,0,206,2,221,18c15,17,17,67,17,515v497h193c175,0,196,2,210,18s17,44,17,184c0,147-2,167-18,181
		c-17,15-76,17-648,17C1657,1660,1501,1657,1492,1648z"/>
	<path class="st0" d="M2937,1642c-16-17-17-80-17-699c0-646,1-681,18-696s72-17,583-17c426,0,568,3,577,12c8,8,12,61,12,173
		s-4,165-12,173c-9,9-102,12-355,12h-343v105v105h308c226,0,311,3,320,12c17,17,17,299,0,316c-9,9-94,12-320,12h-308v80v80h333
		c246,0,336,3,345,12c8,8,12,59,12,163s-4,155-12,163c-9,9-149,12-568,12C2983,1660,2952,1659,2937,1642z"/>
	<path class="st0" d="M4282,1648c-9-9-12-173-12-698c0-653,1-688,18-703c16-14,44-17,188-17c119,0,174,4,182,12c9,9,12,114,13,408
		l1,395l101-407l101-408h178h178l7,28c4,15,48,194,99,397l92,370l1-381c1-356,2-382,19-397c16-14,44-17,188-17c119,0,174,4,182,12
		c17,17,17,1389,0,1406c-9,9-89,12-298,12h-285l-91-367l-90-368l-91,365l-90,365l-289,3C4367,1660,4291,1657,4282,1648z"/>
</g>
</svg>
