<?xml version="1.0" encoding="utf-8"?>
<!-- Generator: Adobe Illustrator 19.2.1, SVG Export Plug-In . SVG Version: 6.00 Build 0)  -->
<svg version="1.1" id="Layer_1" xmlns="http://www.w3.org/2000/svg" xmlns:xlink="http://www.w3.org/1999/xlink" x="0px" y="0px"
	 viewBox="0 0 500 500" style="enable-background:new 0 0 500 500;" xml:space="preserve">
<style type="text/css">
	.st0{fill:#F1F5F9;}
</style>
<g>
	<ellipse class="st0" cx="103.5" cy="70.4" rx="69.2" ry="62.6"/>
	<rect x="85.8" y="345.6" class="st0" width="62.5" height="137.9"/>
	<path class="st0" d="M71,143l-0.2,0.2C58.6,156.9,52,173.9,52,191.5v142.9h107.7v-99.6l16.9,14.2l0,0v0l66.4-0.2L134.5,143H71z"/>
	<rect x="64.1" y="345.6" class="st0" width="14.1" height="137.9"/>
	<ellipse class="st0" cx="393.2" cy="70.4" rx="69.2" ry="62.6"/>
	<rect x="348.3" y="345.6" class="st0" width="62.5" height="137.9"/>
	<rect x="418.5" y="345.6" class="st0" width="14.1" height="137.9"/>
	<path class="st0" d="M432.8,142.3h-63.5l-19.1,16.2l-52.1,43.7l-85,0l47.3,46.2l66.7,0v0l0,0l16.9-14.2v99.6h107.7V190.8
		c0-17.6-6.6-34.6-18.8-48.3L432.8,142.3z"/>
</g>
</svg>
