<?xml version="1.0" encoding="utf-8"?>
<!-- Generator: Adobe Illustrator 19.2.1, SVG Export Plug-In . SVG Version: 6.00 Build 0)  -->
<svg version="1.1" id="Layer_1" xmlns="http://www.w3.org/2000/svg" xmlns:xlink="http://www.w3.org/1999/xlink" x="0px" y="0px"
	 viewBox="0 0 600 600" style="enable-background:new 0 0 600 600;" xml:space="preserve">
<style type="text/css">
	.st0{fill:#F1F5F9;}
</style>
<g>
	<g>
		<path class="st0" d="M371.7,63.5C361.5,34.7,334,14,301.7,14S242,34.7,231.8,63.5H103.9V591h395.7V63.5H371.7z M194.6,112.9H277
			V88.2c0-13.6,11.1-24.7,24.7-24.7s24.7,11.1,24.7,24.7v24.7h82.4v33H194.6V112.9z M178.1,294.3h49.5v49.5h-49.5V294.3z
			 M227.5,541.5h-49.5v-49.5h49.5V541.5z M326.4,541.5H277v-49.5h49.5V541.5z M425.4,541.5h-49.5v-49.5h49.5V541.5z M425.4,442.6
			H178.1v-49.5h247.3L425.4,442.6L425.4,442.6z M277,343.7v-49.5h49.5v49.5H277z M425.4,343.7h-49.5v-49.5h49.5V343.7z M425.4,244.8
			H178.1v-49.5h247.3L425.4,244.8L425.4,244.8z"/>
	</g>
</g>
</svg>
