<?xml version="1.0" encoding="utf-8"?>
<!-- Generator: Adobe Illustrator 19.2.1, SVG Export Plug-In . SVG Version: 6.00 Build 0)  -->
<svg version="1.1" id="Layer_1" xmlns="http://www.w3.org/2000/svg" xmlns:xlink="http://www.w3.org/1999/xlink" x="0px" y="0px"
	 viewBox="0 0 500 500" style="enable-background:new 0 0 500 500;" xml:space="preserve">
<style type="text/css">
	.st0{fill:#F1F5F9;}
</style>
<g>
	<path class="st0" d="M452.4,328.5l-57-33.7c18.3-21,31-51.4,34.9-86.1c5.3-24.1,15.2-80.7,3.4-126.6C418.2,22.4,336.1,13,336,13
		c-0.1,0-82.2,9.4-97.7,69.2c-11.8,45.9-1.9,102.6,3.4,126.6c4,36.3,17.9,67.8,37.5,88.8l-52.3,30.9c-24.7,14.6-40.6,46.1-40.6,80.3
		v79.7H493v-79.7C493,374.6,477.1,343.1,452.4,328.5z M259.3,186.9c0-10.1,1-19.9,2.7-29.3l7.3-26.3c1.3-3.4,2.8-6.7,4.3-10
		l62.4,15.2l62.4-15.2c1.6,3.2,3,6.5,4.3,9.9l7.3,26.4c1.7,9.3,2.7,19.1,2.7,29.2c0,62.3-34.4,113-76.7,113S259.3,249.2,259.3,186.9
		z M474.1,463.5H360.2l-8.4-78.5c10-8.8,14.3-27.9,4-45.8c-18.3-18.4-38.4-1.6-38.4,21.4c0,10.2,4,19.2,9.9,24.4l-8.4,78.5H205.2
		v-54.7c0-24.3,11.6-46.9,29.4-57.5l63.7-37.7c11.6,7.2,24.3,11.2,37.7,11.2c14.7,0,28.6-5,41-13.5l67.7,40
		c17.9,10.6,29.4,33.1,29.4,57.5V463.5z"/>
	<path class="st0" d="M331.2,218.2v-33.3c0-3.3,2.2-5.9,4.8-5.9c2.6,0,4.8,2.6,4.8,5.9v33.3h60.7v-66.7h-37.9
		c-8.5,0-15.9,6.3-19.8,15.5c-2.3-1.7-4.9-2.7-7.8-2.7c-2.8,0-5.5,1-7.8,2.7c-3.9-9.2-11.3-15.5-19.8-15.5h-37.9v66.7H331.2z
		 M351.9,166.3h38.4v37.3h-38.4V166.3z M281.7,203.5v-37.3h38.4v37.3H281.7z"/>
	<g>
		<path class="st0" d="M202.8,374c14.2-18.2,25.5-42.6,33.3-72.4c17.4-66,14.7-152.2-6.2-200.5c-31.4-72.6-92.4-69.3-100.9-68.4
			c-8.5-0.8-73.1-4.2-104.5,68.4C3.7,149.5,1.1,235.7,18.4,301.7c8.1,30.9,20,55.9,34.9,74.3c-19.6,10.9-40,35.8-37.6,101.2
			c0.2,6.4,4.5,11.4,9.6,11.4h209.1c5.2,0,9.4-5,9.6-11.4C246.6,407.8,224,384,202.8,374z M127.2,419.3
			c-9.7-10.9-21.2-23.9-29.7-33.7c12.9-7.1,15.8-27.2,15.6-46.2c4.9,1,10,1.7,15.1,1.7c5.1,0,13.7-0.7,18.6-1.7
			c-0.2,18.1,2.6,36.9,14.2,45.1L127.2,419.3z M128.2,317.3c-43.4,0-78.8-48.7-78.8-108.5c0-24.9,6.2-47.7,16.4-66.1
			c7.5,10.5,18.5,20.4,34.8,26.2c16.9,6,36.8,6.7,52.6,7.5c21.8,1,40.9,2,56.4,17c0.5,5.1,0.9,10.2,0.9,15.5
			C210.6,268.6,171.6,317.3,128.2,317.3z"/>
		<path class="st0" d="M175.2,182.2h-15.4c-8.7,0-19.8,6-23.7,14.7c-2.4-1.6-5-2.6-7.9-2.6c-2.9,0-5.6,1-7.9,2.6
			c-4-8.8-11.5-14.7-20.2-14.7H84.8c-12.8,0-23.2,12.9-23.2,28.7v6.1c0,15.8,10.4,28.7,23.2,28.7h15.3c12.8,0,23.2-12.9,23.2-28.7
			V214c0-3.1,2.2-5.6,4.9-5.6c2.7,0,4.9,2.5,4.9,5.6v3.1c0,15.8,14,28.7,26.8,28.7h15.4c12.8,0,23.2-12.9,23.2-28.7v-6.1
			C198.4,195.1,188,182.2,175.2,182.2z M112,217c0,8.1-5.3,14.7-11.9,14.7H84.8c-6.6,0-11.9-6.6-11.9-14.7v-6.1
			c0-8.1,5.3-14.7,11.9-14.7h15.3c6.6,0,11.9,6.6,11.9,14.7V217z M187.1,217c0,8.1-5.3,14.7-11.9,14.7h-15.4
			c-6.6,0-11.9-6.6-11.9-14.7v-6.1c0-8.1,5.3-14.7,11.9-14.7h15.4c6.5,0,11.9,6.6,11.9,14.7V217z"/>
	</g>
</g>
</svg>
