<?xml version="1.0" encoding="utf-8"?>
<!-- Generator: Adobe Illustrator 19.2.1, SVG Export Plug-In . SVG Version: 6.00 Build 0)  -->
<svg version="1.1" id="Capa_1" xmlns="http://www.w3.org/2000/svg" xmlns:xlink="http://www.w3.org/1999/xlink" x="0px" y="0px"
	 viewBox="0 0 600 600" style="enable-background:new 0 0 600 600;" xml:space="preserve">
<style type="text/css">
	.st0{fill:#FFFFFF;}
</style>
<g>
	<path class="st0" d="M328.4,232.7c3.5,0,6.9,0.6,10.2,1.5l61-74.8c3.9-4.8,11.1-5.7,15.8-1.6c4.6,3.8,5.2,10.7,1.4,15.3l-60.3,74
		c4.1,5.7,6.5,12.6,6.5,20.2c0,14-8.4,26.2-20.4,31.6h236.6c8.7,0,15.7-7,15.7-15.7v-199c0-8.7-7-15.7-15.7-15.7H278.7
		c-8.7,0-15.7,7-15.7,15.7v130.7l14.2,18L328.4,232.7L328.4,232.7z"/>
	<circle class="st0" cx="132.4" cy="82.4" r="64.4"/>
	<g>
		<path class="st0" d="M198.4,567c0,8.7-7,15.7-15.7,15.7h-26.4c-8.7,0-15.7-7-15.7-15.7V435.2c0-4.7-3.8-8.4-8.4-8.4l0,0
			c-4.7,0-8.4,3.8-8.4,8.4v131.2c0,9-7.4,16.3-16.3,16.3H81.5c-8.7,0-15.7-7-15.7-15.7l-0.1-318.2c0-4.3-3.5-7.8-7.8-7.8l0,0
			c-4.3,0-7.8,3.5-7.8,7.8v122.4c0,8.7-7,15.7-15.7,15.7H21.5c-8.7,0-15.7-7-15.7-15.7V203.4c0-19.9,16.2-36,36-36H185
			c15.3,0,29.9,7,39.4,19.1l38.5,48.5l8.1,10.2c0,0,36.5,0,57.5,0.1c8.7,0,15.7,7,15.7,15.7v12.5c0,8.7-7,15.7-15.7,15.7h-68
			c-6.7,0-13.1-3.1-17.2-8.4l-28.7-36.8c-1.4-1.9-3.8-3-6.2-3h-1.9c-4.3,0-7.8,3.5-7.8,7.8L198.4,567z"/>
	</g>
</g>
</svg>
