<?xml version="1.0" encoding="utf-8"?>
<!-- Generator: Adobe Illustrator 19.2.1, SVG Export Plug-In . SVG Version: 6.00 Build 0)  -->
<svg version="1.1" id="Layer_1" xmlns="http://www.w3.org/2000/svg" xmlns:xlink="http://www.w3.org/1999/xlink" x="0px" y="0px"
	 viewBox="0 0 500 500" style="enable-background:new 0 0 500 500;" xml:space="preserve">
<style type="text/css">
	.st0{fill:#F1F5F9;}
</style>
<g>
	<path class="st0" d="M250,218.8c-26.3,0-49-12.5-61.4-30.8H71.7V343c0,84.5,79.8,153,178.3,153c98.5,0,178.3-68.5,178.3-153V187.9
		H311.4C299,206.3,276.3,218.8,250,218.8z"/>
	<path class="st0" d="M178.7,110.9c0-34,32-61.6,71.3-61.6c39.3,0,71.3,27.6,71.3,61.6v46.2h107l-3.4-30.8
		C408.7,56.1,336.6,3.1,250,3.1c-86.6,0-158.7,53-174.9,123.2l-3.4,30.8h107V110.9z"/>
	<path class="st0" d="M214.3,110.9v46.2c0,17,16,30.8,35.7,30.8c19.7,0,35.7-13.8,35.7-30.8v-46.2c0-17-16-30.8-35.7-30.8
		C230.3,80.1,214.3,93.9,214.3,110.9z"/>
</g>
</svg>
