<?xml version="1.0" encoding="utf-8"?>
<!-- Generator: Adobe Illustrator 19.2.1, SVG Export Plug-In . SVG Version: 6.00 Build 0)  -->
<svg version="1.1" id="Layer_1" xmlns="http://www.w3.org/2000/svg" xmlns:xlink="http://www.w3.org/1999/xlink" x="0px" y="0px"
	 viewBox="0 0 8503.9 8503.9" style="enable-background:new 0 0 8503.9 8503.9;" xml:space="preserve">
<style type="text/css">
	.st0{fill:#F1F5F9;}
	.st1{fill:#114834;}
</style>
<g>
	<g>
		<path class="st0" d="M7279.2,3673.8c-61.1-200.1-289.4-317.9-483.5-337.4c-273.4-27.5-553.3,47.9-808.6,140
			c-542.5,195.7-1022.5,586.8-1468,943.4c-91.2,73,5.6,191.9,101.7,172.6c-13.5,36.8-5.8,77.8,14.3,108.3c-8.3,0.9-16.6,1.9-25,2.8
			c-121.3,12.2-134.2,184.8-36.4,209.4c-16.6,24.2-26.7,53.2-26.7,87.8c0,129.8,132.2,187.4,230.5,235.5
			c312.6,152.9,652.3,236,997.2,271.2c328.6,33.4,675.8,7.3,994.5-80.8c117.7-32.5,180-107.9,195.3-225.3
			c16.4-126.2-150.2-226.2-237.4-278.7c-258.5-155.5-571.2-201.2-867.7-227.4c166.7-42.6,332.3-89.9,496.5-143.3
			C6714.1,4435.5,7434.2,4181,7279.2,3673.8z M6781,4130.7c2.8-1.4,5.7-2.7,8.5-4c4.9,3.1,10,5.8,15.2,8c-25,14.7-48.7,27.8-69.7,39
			C6750.6,4161.4,6766,4146.8,6781,4130.7z M6741.4,3544.9c-0.9-0.5-1.7-1.1-2.6-1.6c7.3,0.5,14.5,1,21.7,1.8
			C6754.1,3545,6747.8,3544.8,6741.4,3544.9z M5712.9,3852.3c-85.8,42.3-169.9,87.9-252.5,136.3c85.6-55,172.7-107.1,261.1-156.5
			C5717.9,3838.6,5715.1,3845.3,5712.9,3852.3z"/>
		<path class="st0" d="M1798.4,4551.8c164.2,53.3,329.8,100.6,496.5,143.3c-296.5,26.2-609.2,72-867.7,227.4
			c-87.3,52.5-253.9,152.5-237.4,278.7c15.3,117.4,77.6,192.8,195.3,225.3c318.7,88,665.9,114.2,994.5,80.8
			c344.9-35.1,684.6-118.3,997.2-271.2c98.4-48.1,230.5-105.6,230.5-235.5c0-34.6-10.1-63.6-26.7-87.8
			c97.8-24.6,84.9-197.3-36.4-209.4c-8.3-0.8-16.6-1.9-25-2.8c20.1-30.5,27.8-71.5,14.3-108.3c96.1,19.3,192.9-99.6,101.7-172.6
			c-445.5-356.6-925.5-747.7-1468-943.4c-255.3-92.1-535.2-167.5-808.6-140c-194.2,19.6-422.4,137.3-483.5,337.4
			C720.1,4181,1440.2,4435.5,1798.4,4551.8z M1419.2,4173.7c-21-11.2-44.6-24.3-69.7-39c5.2-2.3,10.3-5,15.2-8
			c2.8,1.4,5.6,2.7,8.5,4C1388.3,4146.8,1403.7,4161.4,1419.2,4173.7z M1393.8,3545.1c7.2-0.8,14.5-1.2,21.7-1.8
			c-0.9,0.5-1.7,1-2.6,1.6C1406.5,3544.8,1400.2,3545,1393.8,3545.1z M2432.7,3832c88.4,49.4,175.5,101.6,261.1,156.5
			c-82.6-48.4-166.7-93.9-252.5-136.3C2439.2,3845.3,2436.4,3838.6,2432.7,3832z"/>
		<path class="st0" d="M4992.2,4631.7c-44.3-157.2-130.4-298.1-236.2-420.9c-137.9-160.1-312.7-136-505.1-126.5
			c-189.1,9.3-431.4-17.9-608,61.8c-18.8,8.5-36.6,18.2-53.8,28.8c-3.7-87.4-139.2-143.4-200.1-48.8
			c-227,353-349.2,783.9-294,1203.9c50,380.2,311.6,668.4,701.4,688.5c191.4,9.9,403.1-42.4,586.5-92
			c180.4-48.7,343.5-150.3,452.9-303.3C5042.5,5333.9,5087.8,4970.6,4992.2,4631.7z M3474,5084c2.6,25.8,6.3,51.7,11.2,77.5
			c-5.3-20.4-10-41.1-13.8-62C3472.3,5094.4,3473.1,5089.2,3474,5084z M3969.6,5191.8c2,1.5,3.9,3.1,5.9,4.6
			c0.9,0.7,1.8,1.1,2.7,1.7c-5.6,10.5-11.2,21-16.8,31.5C3969,5215.6,3970.9,5203.3,3969.6,5191.8z"/>
		<path class="st0" d="M5292.3,1319c-360.9-217-832.1-194.5-1229-118.8c-109.1,20.8-221.3,46.8-333.2,78.8
			c-21.9-23.9-54.5-38.8-98-36.3c-736.3,42.2-1290.2,672.6-1310.4,1395.9c-10.4,371.7,134.7,754.2,365.2,1042.2
			c112.4,140.4,243.1,268.2,403.7,352c188,98.1,434.3,101.8,641,123.6c770.4,81.1,1584.5-210.3,1981.8-908.4
			C6070.4,2620.8,5935.5,1705.8,5292.3,1319z"/>
		<g>
			<path class="st0" d="M4989.4,1319.5c240.2,162.2,480,329.2,638.3,577.6c160.7,252.1,174.4,568.6,120.7,854.4
				c-100.2,533.2-486.6,1102.8-1028,1254c-94,26.3-54,172.5,40.3,146.2c617.1-172.3,1029.5-803.8,1142.8-1407.2
				c56.6-301.2,19.9-610-121.2-882.6c-152.7-295.2-448.9-492.7-716.4-673.3C4984.6,1133.8,4908.8,1265.2,4989.4,1319.5
				L4989.4,1319.5z"/>
		</g>
		<g>
			<path class="st0" d="M4594.4,4212.1c328.9,530.5,458.1,1581.4-346.9,1761.7c-95.4,21.4-54.9,167.5,40.3,146.2
				c369.1-82.7,610.1-390.6,693.6-747.2c98.1-419-34.8-880.1-256.1-1237.1C4673.9,4052.7,4542.7,4128.7,4594.4,4212.1L4594.4,4212.1
				z"/>
		</g>
		<g>
			<path class="st0" d="M5899.8,86.7c-212.3-12.5-408.2,65.7-595.2,158.4c-337.9,167.4-622.5,434.5-830.5,747.5
				c-326.3-26.8-650.6,19.4-950.6,129.1c-207.5-367.5-539.9-773.8-942.7-921.1c-184-67.3-387.5-77.6-539.6,62
				c-120.1,110.2-77.4,321.4,63,387.3c87.9,41.3,164.9-89.3,76.5-130.9c-137.6-64.6-9-182,73.3-207.9c77.1-24.3,164.5-3,239,18.2
				c146.6,41.8,277.6,150,391.8,246.1c201,169.4,365.5,376.7,496.6,603.6c-345.8,153.8-652.6,394.8-883.3,707.4
				c-448.7,608-456.3,1519.2,167.8,2010.8c136,107.1,289.3,193.3,453,259.6c-189.8,68.4-355.2,231.7-419.7,416.1
				c-72.2,206.6,62.4,446.2,249.7,535.1c-20.1,169.2-4.1,339.7,69,506.1c76.3,173.6,198.7,311.6,347.1,414.2
				c-32.8,288.2,51.6,556.6,230.3,786.9c204.2,263.2,516.6,347.4,831,383.4c-35,104.5-52.3,210.7-51.2,324.9c0.4,38.3,23,61.9,51,70
				c-43.8,115.1-99.3,226.2-166.1,331.6c-30.2,7.7-57.2,30.7-61.2,69.5c-19.4,190.6,112.7,362.2,302.9,389.6
				c66.5,9.6,116.6-47.4,85.6-111.3c-50.3-103.7-118.7-186.8-206.3-255.4c361.3-554.9,416.6-1266.7,157.5-1873.1
				c222.5-108.9,403-297.2,504.2-540.7c79-189.9,107.3-384.9,99.1-579c12.3,0,25.3-3,38.5-11c415.6-250.8,229.5-888.4-254.9-862.5
				c659.9-273.3,1128.9-927.8,1153.6-1644c14.2-413.1-166.3-810.2-454.6-1095.3c-2.2-20.3-12.3-40.2-33.6-54.6
				c-28.5-19.3-57.8-36.8-87.6-53.2c-80.1-64.4-166.5-120.6-257.6-167.3c-12.1-15.7-30.4-27.2-55-29.3c-2-0.2-4-0.2-6-0.3
				c-162.2-73.8-337.9-117.1-519.7-122.1c141.7-190.9,312.9-355.1,512-490.1c141.3-95.7,853.3-476.6,841.4-105.9
				c-3.1,97.8,148.5,97.5,151.6,0C6176.2,194.5,6105.6,98.8,5899.8,86.7z M4658.2,1136.9c-12.1,4.9-24.2,10-36.2,15.3
				c1.6-5.2,3.3-10.3,4.3-15.7C4636.9,1136.5,4647.6,1136.6,4658.2,1136.9z M3665.6,1251.3c-6.2-3.9-12.7-7.4-19.3-10.6
				c34.2-11.6,68.4-22.4,102.8-32.2C3721,1222.1,3693.2,1236.4,3665.6,1251.3z M4985.6,4973.5c-593.3,215.9-1229,248.1-1840.4,89.5
				c-15.3-4-28.9-3.1-41,0.5c19.8-111.7,56.4-223.1,101.5-331.2c0.8,0.3,1.3,0.7,2.1,1c287.7,97.2,589.5,104.5,888.3,61.6
				c163.2-23.4,323.9-57.1,484.3-95.1c111.9-26.5,230.2-46.9,331.3-102.5c38.7,123,65.6,248.7,75.8,375.7
				C4986.9,4973.2,4986.2,4973.2,4985.6,4973.5z M4753.2,4213.8c21.4,42.3,42,85,61.4,128.3c-478.7,183.1-990.9,239-1497.6,155.6
				c41.9-80.4,85.2-157.3,125.6-229.2c1.6-2.8,2.4-5.5,3.6-8.2C3877.6,4361.1,4346.7,4342,4753.2,4213.8z M3264.2,4277.2
				c-114.8,208.4-229.9,438.2-286.7,674.3C2665.2,4755,2945.8,4314.8,3264.2,4277.2z M4544.4,7051c-8.3,0.7-16.2,2.6-23.6,5.7
				c-285-25-551.8-77.4-762.4-285.4c-171.7-169.6-261.9-418.5-250.3-658.7c149.9,74.6,316.6,119.4,485.4,133.3
				c141.1,11.6,277.9-4.7,404.9-45C4515.8,6470.9,4563.4,6763.1,4544.4,7051z M4772.2,5768.5c-14.1-1.9-29.3,0.2-45,8.2
				c-422.7,214.1-905.9,197.9-1345.8,45.7c-12.1-4.2-23.4-4.9-33.6-3.4c-73.5-70-136-151.3-182.1-242.8
				c-40.3-79.9-63.2-162.4-72.6-246.1c362,114,737.6,163.8,1117.9,149.8c234.2-8.6,543.2-22,758.5-154.6
				c-7.3,38.3-15.8,76.6-26.9,114.9C4905.7,5566.8,4847.2,5676.5,4772.2,5768.5z M5127.3,4867.5c-27-192.6-86.5-382.7-165.1-564.3
				C5254.9,4320.5,5379.5,4689.6,5127.3,4867.5z M5923.1,2595.9c-54.9,861.9-826.9,1474.8-1640.7,1564.2
				c-429.1,47.1-871.6-39.7-1260.5-222.6c-417.9-196.5-669.1-567.7-698-1027.6c-39.7-631.5,369.4-1160.2,895.6-1472.3
				c237.5-100.1,410.6,39.1,586.7,182.1c105.8,85.9,225.9,170.3,366.5,140.6c147.1-31.1,289.5-206.4,396.7-300.9
				c44.1-38.9,90.6-72.1,139.2-99.7c0.3-0.1,0.5-0.1,0.8-0.1c244.6-70.8,491.2-44.4,710.5,72
				C5750.5,1708.5,5951.7,2146.4,5923.1,2595.9z"/>
			<path class="st1" d="M2975.4,2616c-26.5,94.3,119.7,134.2,146.2,40.3c49.2-174.9,390.8-224.2,398.4-1.4
				c3.3,97.5,154.9,97.8,151.6,0C3658,2259.5,3071.8,2273.7,2975.4,2616z"/>
			<path class="st1" d="M4773.5,2655.7c-2.9,97.8,148.7,97.5,151.6,0c7.1-244.6,313.8-293.2,416.6-81.3
				c42.6,87.9,173.3,11,130.9-76.5C5300.5,2143.1,4784.7,2270.3,4773.5,2655.7z"/>
			<path class="st1" d="M4300.1,3546.5c20.3,131-167.1,159.8-202.9,37.3c-27.3-93.6-173.6-53.8-146.2,40.3
				c39.8,136.4,168.9,209.8,306.3,187.7c139.8-22.4,208.2-180.7,188.9-305.6C4431.3,3409.9,4285.3,3451,4300.1,3546.5z"/>
			<path class="st1" d="M3248.7,2045.3c47.2-6.6,94.4-13.1,141.6-19.7c41-5.7,62.8-57.4,52.9-93.2c-12-43.7-52.3-58.6-93.2-52.9
				c-47.2,6.6-94.4,13.1-141.6,19.7c-41,5.7-62.8,57.4-52.9,93.2C3167.5,2036,3207.8,2050.9,3248.7,2045.3z"/>
			<path class="st1" d="M5127.9,1902.9c67.4,0,134.7,0,202.1,0c97.8,0,97.8-151.6,0-151.6c-67.4,0-134.7,0-202.1,0
				C5030.2,1751.3,5030.2,1902.9,5127.9,1902.9z"/>
		</g>
	</g>
</g>
</svg>
