<?xml version="1.0" encoding="utf-8"?>
<!-- Generator: Adobe Illustrator 19.2.1, SVG Export Plug-In . SVG Version: 6.00 Build 0)  -->
<svg version="1.1" id="Layer_1" xmlns="http://www.w3.org/2000/svg" xmlns:xlink="http://www.w3.org/1999/xlink" x="0px" y="0px"
	 viewBox="0 0 500 500" style="enable-background:new 0 0 500 500;" xml:space="preserve">
<style type="text/css">
	.st0{fill:#F1F5F9;}
</style>
<g>
	<g>
		<path class="st0" d="M293.5,400.8c0,4.5-3.4,8.2-7.6,8.2h-72.3c-4.2,0-7.6-3.7-7.6-8.2v-29.3H9.6v76c0,21.5,16.3,39,36.3,39H126
			h36.3h175h36.3h80.2c19.9,0,36.3-17.6,36.3-39v-76H293.5V400.8z"/>
	</g>
	<g>
		<path class="st0" d="M206,340.2c0-4.5,3.4-8.2,7.6-8.2h72.3c4.2,0,7.6,3.7,7.6,8.2v14.3H490V167.9c0-21.5-16.3-39-36.3-39H45.9
			c-19.9,0-36.3,17.6-36.3,39v186.5H206V340.2z"/>
	</g>
	<g>
		<path class="st0" d="M162.3,67.2c0-10.8,8.1-19.5,18.1-19.5h138.8c10,0,18.1,8.7,18.1,19.5v49.7h36.3V67.2
			c0-32.3-24.4-58.5-54.4-58.5H180.4c-30,0-54.4,26.3-54.4,58.5v49.7h36.3V67.2z"/>
	</g>
	<g>
		<rect x="213.6" y="340.2" class="st0" width="72.3" height="60.7"/>
	</g>
</g>
</svg>
