<?xml version="1.0" encoding="utf-8"?>
<!-- Generator: Adobe Illustrator 19.2.1, SVG Export Plug-In . SVG Version: 6.00 Build 0)  -->
<svg version="1.1" id="Capa_1" xmlns="http://www.w3.org/2000/svg" xmlns:xlink="http://www.w3.org/1999/xlink" x="0px" y="0px"
	 viewBox="0 0 600 600" style="enable-background:new 0 0 600 600;" xml:space="preserve">
<style type="text/css">
	.st0{fill:#21395A;}
</style>
<g>
	<g>
		<path class="st0" d="M30.9,352.8h47.7v190.7c0,11.2,9.2,20.4,20.4,20.4h139.6c11.2,0,20.4-9.2,20.4-20.4V403.9h85.1v139.6
			c0,11.2,9.2,20.4,20.4,20.4h132.8c11.2,0,20.4-9.2,20.4-20.4V352.8h57.9c8.2,0,15.7-5.1,18.7-12.6s1.4-16.3-4.4-22.1l-266.3-270
			c-7.8-7.8-20.8-8.2-28.6-0.3L17,317.8c-6.1,5.8-7.8,14.6-4.8,22.5C15.3,348.1,22.8,352.8,30.9,352.8z M308.8,91.3L526.7,312h-29.3
			c-11.2,0-20.4,9.2-20.4,20.4v190.7h-91.9V383.5c0-11.2-9.2-20.4-20.4-20.4h-126c-11.2,0-20.4,9.2-20.4,20.4v139.6h-98.7V332.4
			c0-11.2-9.2-20.4-20.4-20.4H81.3L308.8,91.3z"/>
	</g>
</g>
</svg>
