<?xml version="1.0" encoding="utf-8"?>
<!-- Generator: Adobe Illustrator 19.2.1, SVG Export Plug-In . SVG Version: 6.00 Build 0)  -->
<svg version="1.1" id="Layer_1" xmlns="http://www.w3.org/2000/svg" xmlns:xlink="http://www.w3.org/1999/xlink" x="0px" y="0px"
	 viewBox="0 0 500 500" style="enable-background:new 0 0 500 500;" xml:space="preserve">
<style type="text/css">
	.st0{fill:#F1F5F9;}
</style>
<g>
	<path class="st0" d="M24.8,157.2c0,7.7-0.1,12.9-0.4,15.6c-0.3,2.7-1.4,4.9-3.4,6.8s-4.6,2.8-8,2.8c-1.3,0-3.3-0.1-6.2-0.4v35.5
		h23.7c10.5,0,18.3-0.9,23.5-2.7c5.2-1.8,9.3-5,12.4-9.7c3-4.7,4.8-9.9,5.1-15.8c0.4-5.8,0.6-18.9,0.6-39.2V14.3H24.8V157.2z"/>
	<path class="st0" d="M198.5,132.3V98.5c0-20.9-0.4-35.6-1.3-43.9c-0.9-8.4-3.7-16.1-8.4-23.2c-4.7-7.1-11-12.4-18.7-16
		c-7.8-3.6-16.5-5.3-26.2-5.3c-10.3,0-19.3,1.9-27,5.6c-7.7,3.8-13.8,9.2-18.4,16.2c-4.5,7-7.2,14.8-8.1,23.3
		c-0.9,8.5-1.3,23-1.3,43.4v34.8c0,20.9,0.4,35.6,1.3,43.9c0.9,8.4,3.7,16.1,8.4,23.2c4.7,7.1,11,12.4,18.7,16
		c7.8,3.6,16.5,5.3,26.2,5.3c1.1,0,2.2,0,3.2-0.1c5.3-28.2,17.8-54.1,36.5-74.9C188.2,141.5,193.2,136.7,198.5,132.3z M151.2,159.9
		c0,12-0.4,19.5-1.3,22.7c-0.9,3.2-3,4.8-6.2,4.8c-3.1,0-5.2-1.4-6-4.1c-0.9-2.8-1.3-10-1.3-21.8V66.5c0-10.5,0.7-16.8,2-18.9
		c1.3-2.1,3.2-3.2,5.7-3.2c2.9,0,4.9,1.3,5.8,4s1.4,8.7,1.4,18.1V159.9z"/>
	<path class="st0" d="M305,105.6c6.1-2.3,10.3-5.2,12.8-8.6c3.3-4.7,5-13,5-24.8c0-17.6-2.4-30.3-7.1-38.2
		c-4.7-7.9-10.9-13.1-18.6-15.7c-7.7-2.6-19-3.9-33.9-3.9h-47.2v105.6c19.1-11.2,40.4-17.2,62.6-17.2
		C287.7,102.7,296.5,103.7,305,105.6z M268.2,94.1c-1.1,0-2.7,0-4.7,0.1V49c4.9,0.1,8.1,0.5,9.8,1.1c1.7,0.7,3.1,2.3,4.1,4.8
		c1,2.6,1.6,7,1.6,13.4c0,12.1-0.6,19.4-1.9,21.9C275.8,92.8,272.8,94.1,268.2,94.1z"/>
	<path class="st0" d="M384.3,323.4c28.1-52.7,21.9-122-18.7-167.3c-48-53.6-125.8-53.6-173.8,0s-48,140.5,0,194.2
		c40.6,45.4,102.6,52.3,149.8,20.9L477.5,496l19.2-21.4L384.3,323.4z M343.6,325.7c-35.8,40-93.9,40-129.8,0
		c-35.8-40-35.8-104.9,0-145c35.8-40,93.9-40,129.8,0C379.5,220.7,379.5,285.6,343.6,325.7z"/>
	<path class="st0" d="M280.8,163.8c-0.6,3.8-1.6,6.4-2.9,7.9c-2.4,2.8-8.1,4.3-17,4.7V166c-14.6,3.7-27.9,11.9-38.8,24
		c-8.4,9.4-14.8,20.6-18.7,32.8h67.3c25.3,0,42.1-1.6,50.3-4.8c8.2-3.2,14.1-9.3,17.9-18.1c0.5-1.1,0.9-2.4,1.4-3.7
		c-1.6-2.1-3.3-4.2-5-6.2C320.7,173.7,301.4,164.4,280.8,163.8z"/>
</g>
</svg>
