<?xml version="1.0" encoding="utf-8"?>
<!-- Generator: Adobe Illustrator 19.2.1, SVG Export Plug-In . SVG Version: 6.00 Build 0)  -->
<svg version="1.1" id="Capa_1" xmlns="http://www.w3.org/2000/svg" xmlns:xlink="http://www.w3.org/1999/xlink" x="0px" y="0px"
	 viewBox="0 0 600 600" style="enable-background:new 0 0 600 600;" xml:space="preserve">
<style type="text/css">
	.st0{fill:#21395A;}
</style>
<g>
	<path class="st0" d="M446.2,51.7c-4.8,0-9.5,3-14,9c-0.5,0.6-50.4,65.3-175,103.7c-9.1,2.8-19.9,6.4-32,7.9
		c-6.7,0.8-8.3-0.6-8.8-1.6c-3.7-6.8-10.9-11.4-19.2-11.4H74c-12.1,0-21.9,9.8-21.9,21.9v8.2c0,4.9-3.5,5.2-4.7,5.2
		c-1.8,0.1-2.8,0.2-2.9,0.2c-15.8,1.2-28.7,15-28.7,30.8V308c0,15.8,12.9,29.7,28.7,30.8c0.1,0,1.6,0.1,4.1,0.3c1,0.1,3.5,1,3.5,5.3
		v8c0,12.1,9.8,21.9,21.9,21.9c0,0,7.1,0,9.5,0c4.2,0,5,4.3,5,4.3l34.1,155.2c3.3,15.2,18.2,27.2,33.8,27.2h39.3
		c8,0,15.2-3.3,19.8-9c4.6-5.7,6.3-13.5,4.6-21.3l-33.3-151.6c0,0-1.3-4.7,3.5-4.7c1.7,0,6.8,0,6.8,0c8.2,0,14.8-4.9,19.1-11.3
		c1.9-2.7,5.8-2.3,7.9-1.9c12.4,2.5,23.6,5.2,33,8.1c124.6,38.5,174.5,103.1,175,103.7c4.5,6,9.2,9.1,14,9.1c0,0,0,0,0,0
		c4.4,0,8.1-2.5,10.2-6.8c1.4-2.8,2.1-6.6,2.1-11.1V69.5C458.4,52.5,448.2,51.7,446.2,51.7z"/>
	<path class="st0" d="M551.9,156.7c-4.6-6.7-13.7-8.3-20.3-3.7c-6.7,4.6-8.3,13.7-3.7,20.3c19.4,28.2,29.7,62.2,29.7,98.4
		c0,36-10.8,71.3-30.3,99.2c-4.6,6.6-3,15.7,3.6,20.4c2.6,1.8,5.5,2.6,8.4,2.6c4.6,0,9.2-2.2,12-6.3c23.3-33.3,35.5-73.4,35.5-116
		C586.8,229.6,574.8,189.8,551.9,156.7z"/>
	<path class="st0" d="M503.9,198.1c-4.6-6.7-13.7-8.3-20.3-3.7c-6.7,4.6-8.3,13.7-3.7,20.3c11.3,16.4,17.3,36.2,17.3,57.2
		c0,21-6.2,41.5-17.6,57.7c-4.6,6.6-3,15.7,3.6,20.4c2.6,1.8,5.5,2.6,8.4,2.6c4.6,0,9.2-2.2,12-6.3c15-21.4,22.9-47.1,22.9-74.5
		C526.3,244.9,518.5,219.3,503.9,198.1z"/>
</g>
</svg>
