<?xml version="1.0" encoding="utf-8"?>
<!-- Generator: Adobe Illustrator 19.2.1, SVG Export Plug-In . SVG Version: 6.00 Build 0)  -->
<svg version="1.1" id="Layer_1" xmlns="http://www.w3.org/2000/svg" xmlns:xlink="http://www.w3.org/1999/xlink" x="0px" y="0px"
	 viewBox="0 0 500 500" style="enable-background:new 0 0 500 500;" xml:space="preserve">
<style type="text/css">
	.st0{fill:#FFFFFF;}
	.st1{fill:#F1F5F9;}
	.st2{fill:none;}
</style>
<line class="st0" x1="262.7" y1="50.7" x2="182.6" y2="130.9"/>
<line class="st0" x1="-63" y1="53.9" x2="-63" y2="230.8"/>
<path class="st1" d="M417.7,282.7c-7.4-13.7-19.8-30-40.5-44.4c16.5-17.2,26.7-40.5,26.7-66.1v0c0,0,11.3-74.9-12.6-95.7
	c-4-3.5-9-6.8-14.5-9.9c-42.3-23.9-94.7-23.9-137,0c-5.5,3.1-10.5,6.4-14.5,9.9c-24,20.7-12.6,95.7-12.6,95.7v0
	c0,25.7,10.2,48.9,26.7,66.1c-20.8,14.4-33.2,30.6-40.5,44.4c-15.5,29-13.4,54.5-13.4,55.6c0.5,5.1,4.7,9,9.8,9h225.9
	c5.1,0,9.3-3.9,9.8-9C431.1,337.2,433.2,311.7,417.7,282.7z M308.3,314.8l-41.6-56.6c12.6,6.1,26.7,9.6,41.6,9.6
	c14.9,0,29-3.5,41.6-9.6L308.3,314.8z M308.3,248.1c-41.9,0-76-34.1-76-75.9c0-16.2,5.2-31.3,13.9-43.6l62.1,12.8l62.1-12.8
	c8.7,12.4,13.9,27.4,13.9,43.6C384.2,214.1,350.2,248.1,308.3,248.1z"/>
<g>
	<g>
		<path class="st2" d="M392.4,101.7c-27.7-28.9-63.4-43.5-99-44c-35.6-0.4-70.5,13.1-97,40.8c-26.5,27.7-39.5,64.2-39.1,101.3
			c0.4,30.3,9.9,60.6,28.3,86.5c5.4,4.1,10.8,8.9,16.1,14.4c5.3,5.5,9.9,11.2,13.8,16.9c24.8,19.3,53.8,29.2,82.8,29.6
			c35.6,0.4,70.5-13.1,97-40.8c26.5-27.8,39.5-64.2,39.1-101.4C434,168,420.1,130.7,392.4,101.7z"/>
	</g>
	<g>
		<path class="st1" d="M429,63.5C391.6,24.4,342.8,4.3,294.1,3.6l-1.4,0C256.9,3.4,221.1,13.7,190,34.7
			c-10.7,7.3-20.9,15.8-30.3,25.6c-36.8,38.4-54.9,89.5-54.2,140.3c0.4,31.5,7.9,63,22.5,91.7L20.1,405c-8.9,9.3,2.2,36.1,24.8,59.7
			c22.6,23.6,48.2,35.2,57.2,25.9L210,377.9c27.5,15.2,57.7,23.1,87.8,23.5c48.6,0.7,97.5-18.2,134.3-56.7
			c36.8-38.5,54.9-89.5,54.2-140.3C485.7,153.6,466.4,102.5,429,63.5z M395.4,306.5c-26.6,27.7-61.5,41.3-97,40.8
			c-29-0.4-58-10.4-82.8-29.6c-3.9-5.6-8.5-11.3-13.8-16.9c-5.3-5.5-10.8-10.3-16.1-14.4c-18.4-25.9-28-56.2-28.3-86.5
			c-0.4-37.1,12.5-73.6,39.1-101.3c26.6-27.7,61.5-41.3,97-40.8c35.5,0.5,71.3,15.1,99,44c27.7,28.9,41.6,66.2,42.1,103.4
			C434.9,242.3,422,278.7,395.4,306.5z"/>
	</g>
</g>
</svg>
