<?xml version="1.0" encoding="utf-8"?>
<!-- Generator: Adobe Illustrator 19.2.1, SVG Export Plug-In . SVG Version: 6.00 Build 0)  -->
<svg version="1.1" id="Capa_1" xmlns="http://www.w3.org/2000/svg" xmlns:xlink="http://www.w3.org/1999/xlink" x="0px" y="0px"
	 viewBox="0 0 600 600" style="enable-background:new 0 0 600 600;" xml:space="preserve">
<style type="text/css">
	.st0{fill:#4F679E;}
</style>
<g>
	<g>
		<path class="st0" d="M27,155.2H575c12.3,0,22.4-10.1,22.4-22.4s-10.1-22.4-22.4-22.4H27c-12.3,0-22.4,10.1-22.4,22.4
			S14.7,155.2,27,155.2z"/>
		<path class="st0" d="M27,323H575c12.3,0,22.4-10.1,22.4-22.4c0-12.3-10.1-22.4-22.4-22.4H27c-12.3,0-22.4,10.1-22.4,22.4
			C4.6,312.9,14.7,323,27,323z"/>
		<path class="st0" d="M27,490.8H575c12.3,0,22.4-10.1,22.4-22.4c0-12.3-10.1-22.4-22.4-22.4H27c-12.3,0-22.4,10.1-22.4,22.4
			C4.6,480.7,14.7,490.8,27,490.8z"/>
	</g>
</g>
</svg>
