<?xml version="1.0" encoding="utf-8"?>
<!-- Generator: Adobe Illustrator 21.0.0, SVG Export Plug-In . SVG Version: 6.00 Build 0)  -->
<svg version="1.1" id="Layer_1" xmlns="http://www.w3.org/2000/svg" xmlns:xlink="http://www.w3.org/1999/xlink" x="0px" y="0px"
	 viewBox="0 0 720 612" style="enable-background:new 0 0 720 612;" xml:space="preserve">
<style type="text/css">
	.st0{fill:#3B4B55;}
	.st1{fill:#F1F5F9;}
</style>
<g>
	<path class="st0" d="M948,15.8c-2.7,0-5-1.5-6.2-3.6h-11.8v18.2c0,9.9,8.1,17.9,18,17.9c10,0,18-8,18-17.9V12.1h-11.8
		C952.9,14.3,950.6,15.8,948,15.8z"/>
	<path class="st0" d="M940.7,3.1c0-4,3.2-7.2,7.2-7.2c4,0,7.2,3.2,7.2,7.2v5.4H966l-0.3-3.6C964-3.3,956.7-9.5,948-9.5
		c-8.8,0-16.1,6.2-17.7,14.4l-0.3,3.6h10.8V3.1z"/>
	<path class="st0" d="M944.4,3.1v5.4c0,2,1.6,3.6,3.6,3.6c2,0,3.6-1.6,3.6-3.6V3.1c0-2-1.6-3.6-3.6-3.6C946-0.5,944.4,1.1,944.4,3.1
		z"/>
</g>
<g>
	<path class="st1" d="M95.2,367.6c26.9,0,48.9-21.5,48.9-48c0-1.9-0.4-3.8-0.6-5.6L254,225.5c6.3,2.9,13.2,4.7,20.7,4.7
		c10.4,0,20-3.3,28-8.8l129.6,71.4c-0.1,1-0.3,1.9-0.3,2.9c0,26.5,21.9,48,48.9,48c26.9,0,48.9-21.5,48.9-48c0-11.4-4.2-21.7-11-30
		l86.6-179.5l16.8,54.5c2.8,9,11.2,14.7,20.2,14.7c2,0,4.1-0.3,6.2-0.9c11.2-3.3,17.5-14.9,14.1-25.9L631.2,27.4
		c-1.6-5.3-5.3-9.7-10.3-12.3c-5-2.6-10.7-3.1-16.1-1.5L501.7,44.5c-11.2,3.4-17.5,15-14,25.9c3.4,11,15.2,17.1,26.4,13.8l53-15.9
		l-86.6,179.4c-10.3,0.1-19.9,3.3-27.7,8.7l-129.6-71.4c0.1-1,0.3-1.9,0.3-2.9c0-26.5-21.9-48-48.9-48s-48.9,21.5-48.9,48
		c0,3.8,0.6,7.5,1.5,11.1l-106.8,85.5c-7.4-4.4-16-7.1-25.3-7.1c-26.9,0-48.9,21.5-48.9,48S68.2,367.6,95.2,367.6z"/>
	<path class="st1" d="M71.6,417.6v94.6c0,11.5,9.5,20.8,21.1,20.8s21.1-9.3,21.1-20.8v-94.6c0-11.5-9.5-20.8-21.1-20.8
		S71.6,406.2,71.6,417.6z"/>
	<path class="st1" d="M167.6,355.3v156.9c0,11.5,9.5,20.8,21.1,20.8c11.7,0,21.1-9.3,21.1-20.8V355.3c0-11.5-9.5-20.8-21.1-20.8
		C177.1,334.6,167.6,343.9,167.6,355.3z"/>
	<path class="st1" d="M284.8,293c-11.7,0-21.1,9.3-21.1,20.8v198.5c0,11.5,9.5,20.8,21.1,20.8c11.7,0,21.1-9.3,21.1-20.8V313.8
		C305.9,302.3,296.5,293,284.8,293z"/>
	<path class="st1" d="M359.7,376.1v136.2c0,11.5,9.5,20.8,21.1,20.8c11.7,0,21.1-9.3,21.1-20.8V376.1c0-11.5-9.5-20.8-21.1-20.8
		C369.1,355.3,359.7,364.6,359.7,376.1z"/>
	<path class="st1" d="M455.7,417.6v94.6c0,11.5,9.5,20.8,21.1,20.8c11.7,0,21.1-9.3,21.1-20.8v-94.6c0-11.5-9.5-20.8-21.1-20.8
		C465.2,396.9,455.7,406.2,455.7,417.6z"/>
	<path class="st1" d="M551.8,281.8v230.5c0,11.5,9.5,20.8,21.1,20.8s21.1-9.3,21.1-20.8V281.8c0-11.5-9.5-20.8-21.1-20.8
		S551.8,270.3,551.8,281.8z"/>
	<path class="st1" d="M637.3,558.1H56.9c-11.7,0-21.1,9.3-21.1,20.8c0,11.5,9.5,20.8,21.1,20.8h580.4c11.7,0,21.1-9.3,21.1-20.8
		C658.5,567.4,649,558.1,637.3,558.1z"/>
</g>
</svg>
