<?xml version="1.0" encoding="utf-8"?>
<!-- Generator: Adobe Illustrator 21.0.0, SVG Export Plug-In . SVG Version: 6.00 Build 0)  -->
<svg version="1.1" id="Layer_1" xmlns="http://www.w3.org/2000/svg" xmlns:xlink="http://www.w3.org/1999/xlink" x="0px" y="0px"
	 viewBox="0 0 704.3 500.3" style="enable-background:new 0 0 704.3 500.3;" xml:space="preserve">
<style type="text/css">
	.st0{fill:#3B4B55;}
	.st1{fill:#21395A;}
</style>
<g>
	<path class="st0" d="M889.9-32.5c-2.7,0-5-1.5-6.2-3.6h-11.8v18.2C871.9-8,880,0,889.9,0c10,0,18-8,18-17.9v-18.2h-11.8
		C894.9-33.9,892.6-32.5,889.9-32.5z"/>
	<path class="st0" d="M882.7-45.1c0-4,3.2-7.2,7.2-7.2s7.2,3.2,7.2,7.2v5.4H908l-0.3-3.6c-1.6-8.2-8.9-14.4-17.7-14.4
		c-8.8,0-16.1,6.2-17.7,14.4l-0.3,3.6h10.8V-45.1z"/>
	<path class="st0" d="M886.3-45.1v5.4c0,2,1.6,3.6,3.6,3.6s3.6-1.6,3.6-3.6v-5.4c0-2-1.6-3.6-3.6-3.6S886.3-47.1,886.3-45.1z"/>
</g>
<g>
	<path class="st1" d="M496.3,350.7c-0.4-68.1-65.4-123.2-145.5-123.2c-80.1,0-145.2,55.1-145.5,123.2h0v82.6
		c34.1-30.4,88.8-50.1,150.5-50.1c56,0,106.2,16.2,140.5,42L496.3,350.7L496.3,350.7z"/>
	<path class="st1" d="M350.7,215.4c88.5,0,160.2,60.8,160.6,136h0v59.3l172.3-8.7L411.8,51L30.4,153.3l165.9,161
		C215.6,257.2,277.4,215.4,350.7,215.4z"/>
	<ellipse class="st1" cx="350.7" cy="433.3" rx="127.1" ry="31.3"/>
	<path class="st1" d="M54.1,407.6V159.7h-7v247.9c-4,5.7-10,16.2-10,28.2c0,18.1,6,18.8,13.5,18.8c7.4,0,13.5-0.7,13.5-18.8
		C64.1,423.8,58.1,413.2,54.1,407.6z"/>
</g>
</svg>
