<?xml version="1.0" encoding="utf-8"?>
<!-- Generator: Adobe Illustrator 21.0.0, SVG Export Plug-In . SVG Version: 6.00 Build 0)  -->
<svg version="1.1" id="Layer_1" xmlns="http://www.w3.org/2000/svg" xmlns:xlink="http://www.w3.org/1999/xlink" x="0px" y="0px"
	 viewBox="0 0 651.1 612" style="enable-background:new 0 0 651.1 612;" xml:space="preserve">
<style type="text/css">
	.st0{fill:#3B4B55;}
	.st1{fill:#21395A;}
</style>
<g>
	<path class="st0" d="M894.3,15.8c-2.7,0-5-1.5-6.2-3.6h-11.8v18.2c0,9.9,8.1,17.9,18,17.9c10,0,18-8,18-17.9V12.1h-11.8
		C899.2,14.3,896.9,15.8,894.3,15.8z"/>
	<path class="st0" d="M887.1,3.1c0-4,3.2-7.2,7.2-7.2s7.2,3.2,7.2,7.2v5.4h10.8L912,4.9c-1.6-8.2-8.9-14.4-17.7-14.4
		c-8.8,0-16.1,6.2-17.7,14.4l-0.3,3.6h10.8V3.1z"/>
	<path class="st0" d="M890.7,3.1v5.4c0,2,1.6,3.6,3.6,3.6c2,0,3.6-1.6,3.6-3.6V3.1c0-2-1.6-3.6-3.6-3.6
		C892.3-0.5,890.7,1.1,890.7,3.1z"/>
</g>
<g>
	<ellipse class="st1" cx="168" cy="96.3" rx="74.5" ry="72.8"/>
	<rect x="148.9" y="416.2" class="st1" width="67.4" height="160.3"/>
	<path class="st1" d="M132.9,180.7l-0.2,0.2c-13.1,15.9-20.3,35.7-20.3,56.1v166.1h116.1V287.5l18.3,16.5l0,0v0l71.5-0.2l-117-123.1
		H132.9z"/>
	<rect x="125.5" y="416.2" class="st1" width="15.2" height="160.3"/>
	<ellipse class="st1" cx="480.1" cy="96.3" rx="74.5" ry="72.8"/>
	<rect x="431.8" y="416.2" class="st1" width="67.4" height="160.3"/>
	<rect x="507.4" y="416.2" class="st1" width="15.2" height="160.3"/>
	<path class="st1" d="M522.8,179.9h-68.4l-20.5,18.8l-56.1,50.8l-91.6,0l51,53.7l71.8,0v0l0,0l18.3-16.5v115.7h116.1V236.3
		c0-20.4-7.2-40.2-20.3-56.1L522.8,179.9z"/>
</g>
</svg>
