<?xml version="1.0" encoding="utf-8"?>
<!-- Generator: Adobe Illustrator 19.2.1, SVG Export Plug-In . SVG Version: 6.00 Build 0)  -->
<svg version="1.1" id="Capa_1" xmlns="http://www.w3.org/2000/svg" xmlns:xlink="http://www.w3.org/1999/xlink" x="0px" y="0px"
	 viewBox="0 0 600 600" style="enable-background:new 0 0 600 600;" xml:space="preserve">
<style type="text/css">
	.st0{fill:#FFFFFF;}
</style>
<g>
	<g>
		<path class="st0" d="M334.5,378.1c63.7,0,115.5-51.8,115.5-115.5s-51.8-115.5-115.5-115.5S219.1,199,219.1,262.7
			S270.8,378.1,334.5,378.1z"/>
		<g>
			<path class="st0" d="M236.3,401c-44.5,0-80.5,36.1-80.5,80.5v89.9c0,8.5,6.9,15.5,15.5,15.5h326.4c8.5,0,15.5-6.9,15.5-15.5
				v-87.7c1.4-2.4,2.6-4.9,3.6-7.6L580,309c2.1-5.6,3.2-11.5,3.2-17.5V103.8c0-27.4-22.2-49.6-49.6-49.6
				c-27.4,0-49.6,22.2-49.6,49.6v178.6L439.3,401H236.3z"/>
			<path class="st0" d="M41,132.3h36.5c7.7,0,14.2-5.6,15.3-13.1c2.1-13.8,6.4-23.9,12.7-30c5.9-5.7,14-8.5,24.9-8.5
				c11.3,0,19.9,3.1,26.5,9.5c6.6,6.4,9.6,14.2,9.6,24.5c0,4.8-1.1,9.3-3.4,13.6c-1.2,2.2-5.8,8.9-23.2,23.7
				c-16.2,13.8-27.2,26.7-33.6,39.5c-6.5,13.1-9.7,32.1-9.7,58l0,0c0,8.5,6.9,15.5,15.5,15.5h33c8.5,0,15.5-6.9,15.5-15.5l0,0
				c0-20,2.4-28.2,3.8-31.3c1.1-2.5,5.8-9.8,24.2-25c17.1-14.2,28.6-27.1,35.2-39.5c6.8-12.7,10.2-26.6,10.2-41.4
				c0-26.3-10-48.3-29.7-65.4c-19.1-16.5-44-24.8-74-24.8c-28.6,0-52.8,8.5-71.9,25.3c-19.2,17-30.2,40-32.6,68.3l0,0
				C24.9,124.5,32,132.3,41,132.3z"/>
			<path class="st0" d="M145,352.5c8.5,0,15.5-6.9,15.5-15.5v-33c0-8.5-6.9-15.5-15.5-15.5h-33c-8.5,0-15.5,6.9-15.5,15.5v33
				c0,8.5,6.9,15.5,15.5,15.5H145z"/>
		</g>
	</g>
</g>
</svg>
