<?xml version="1.0" encoding="utf-8"?>
<!-- Generator: Adobe Illustrator 19.2.1, SVG Export Plug-In . SVG Version: 6.00 Build 0)  -->
<svg version="1.1" id="Capa_1" xmlns="http://www.w3.org/2000/svg" xmlns:xlink="http://www.w3.org/1999/xlink" x="0px" y="0px"
	 viewBox="0 0 600 600" style="enable-background:new 0 0 600 600;" xml:space="preserve">
<style type="text/css">
	.st0{fill:#F1F5F9;}
</style>
<g>
	<g>
		<path class="st0" d="M301.5,19C145.7,19,19,145.7,19,301.5S145.7,584,301.5,584S584,457.3,584,301.5S457.3,19,301.5,19z
			 M301.5,523.9c-122.6,0-222.4-99.8-222.4-222.4S178.9,79.1,301.5,79.1s222.4,99.8,222.4,222.4S424.1,523.9,301.5,523.9z"/>
		<path class="st0" d="M448.7,292.8H321.8V140.2c0-12.8-10.4-23.3-23.3-23.3c-12.9,0-23.3,10.4-23.3,23.3v175.9
			c0,12.8,10.4,23.3,23.3,23.3h150.2c12.8,0,23.3-10.4,23.3-23.3C472,303.2,461.6,292.8,448.7,292.8z"/>
	</g>
</g>
</svg>
