<?xml version="1.0" encoding="utf-8"?>
<!-- Generator: Adobe Illustrator 19.2.1, SVG Export Plug-In . SVG Version: 6.00 Build 0)  -->
<svg version="1.1" id="Capa_1" xmlns="http://www.w3.org/2000/svg" xmlns:xlink="http://www.w3.org/1999/xlink" x="0px" y="0px"
	 viewBox="0 0 600 600" style="enable-background:new 0 0 600 600;" xml:space="preserve">
<style type="text/css">
	.st0{fill:#114834;}
</style>
<g>
	<g>
		<path class="st0" d="M298,13C140.8,13,13,140.8,13,298s127.8,285,285,285s285-127.8,285-285S455.2,13,298,13z M298,522.3
			C174.3,522.3,73.7,421.7,73.7,298S174.3,73.7,298,73.7S522.3,174.3,522.3,298S421.7,522.3,298,522.3z"/>
		<path class="st0" d="M446.5,289.2h-128v-154c0-12.9-10.5-23.5-23.5-23.5c-13,0-23.5,10.5-23.5,23.5v177.5
			c0,12.9,10.5,23.5,23.5,23.5h151.5c12.9,0,23.5-10.5,23.5-23.5C470,299.7,459.5,289.2,446.5,289.2z"/>
	</g>
</g>
</svg>
