<?xml version="1.0" encoding="utf-8"?>
<!-- Generator: Adobe Illustrator 19.2.1, SVG Export Plug-In . SVG Version: 6.00 Build 0)  -->
<svg version="1.1" id="Capa_1" xmlns="http://www.w3.org/2000/svg" xmlns:xlink="http://www.w3.org/1999/xlink" x="0px" y="0px"
	 viewBox="0 0 600 600" style="enable-background:new 0 0 600 600;" xml:space="preserve">
<style type="text/css">
	.st0{fill:#F1F5F9;}
</style>
<g>
	<path class="st0" d="M542.1,274.2L434.9,381.4c-59.2,59.2-155.1,59.2-214.3,0c-9.3-9.3-16.6-19.8-23-30.6l49.8-49.8
		c2.4-2.4,5.3-3.8,8.1-5.4c3.4,11.8,9.5,22.9,18.7,32.2c29.5,29.6,77.6,29.5,107.1,0l107.2-107.2c29.6-29.6,29.6-77.6,0-107.2
		c-29.5-29.5-77.6-29.5-107.2,0l-38.1,38.1c-30.9-12-64.2-15.3-96.7-10.5l81.2-81.2c59.2-59.2,155.1-59.2,214.3,0
		C601.3,119.1,601.3,215,542.1,274.2z M258.7,450.4l-38.1,38.1c-29.5,29.5-77.6,29.5-107.2,0c-29.5-29.6-29.5-77.6,0-107.2
		l107.2-107.2c29.6-29.6,77.6-29.6,107.2,0c9.2,9.2,15.2,20.4,18.7,32.1c2.8-1.6,5.7-3,8.1-5.3l49.8-49.8
		c-6.4-10.8-13.7-21.3-23-30.6c-59.2-59.2-155.1-59.2-214.3,0L59.9,327.8C0.7,387,0.7,482.9,59.9,542.1
		c59.2,59.2,155.1,59.2,214.3,0l81.2-81.2C323,465.7,289.6,462.4,258.7,450.4z"/>
</g>
</svg>
