<?xml version="1.0" encoding="utf-8"?>
<!-- Generator: Adobe Illustrator 19.2.1, SVG Export Plug-In . SVG Version: 6.00 Build 0)  -->
<svg version="1.1" id="Layer_1" xmlns="http://www.w3.org/2000/svg" xmlns:xlink="http://www.w3.org/1999/xlink" x="0px" y="0px"
	 viewBox="0 0 500 500" style="enable-background:new 0 0 500 500;" xml:space="preserve">
<style type="text/css">
	.st0{fill:#F1F5F9;}
</style>
<g>
	<path class="st0" d="M486.8,132.8h-74.9l0-83.6c0-12.2-10.6-22.2-23.7-22.2h-10.7c-0.3,0-0.6,0.1-1,0.2
		c-3.2-12.4-14.2-21.6-27.4-21.6c-15.6,0-28.3,12.9-28.3,28.9l0,98.3H13.4c-2.4,0-4.4,2-4.4,4.5V363c0,2.5,2,4.5,4.4,4.5h312.4
		l0,34.8l46.5,0l0-34.9h114.5c2.4,0,4.4-2,4.4-4.5V137.2C491.1,134.8,489.2,132.8,486.8,132.8z M377.5,35.9L377.5,35.9h10.7
		c8.2,0,15,5.9,15,13.3l0,83.6h-25.7L377.5,35.9z M330.4,31.5c0-2.5,2-4.5,4.4-4.5c2.4,0,4.4,2,4.4,4.5V164c0,2.5-2,4.5-4.4,4.5
		c-2.4,0-4.4-2-4.4-4.5V31.5z M344.1,373c0,2.5-2,4.5-4.4,4.5c-2.4,0-4.4-2-4.4-4.5V224.7c0-2.5,2-4.5,4.4-4.5c2.4,0,4.4,2,4.4,4.5
		V373z M482.4,358.6H372.3l0-59.8h63.9v-20.7h-63.9l0-12.7h63.9v-19.9h-63.9l0-53.5h-46.5l0,53.5h-264v19.9h264l0,12.7h-264v20.7
		h264l0,59.8H17.8V141.7h303.1l0,33.5c0,4.3,3.4,7.9,7.7,7.9l41.2,0c4.3,0,7.7-3.5,7.7-7.9l0-33.5h25.7c-0.2,7.2-6.8,13-14.9,13
		c-2.4,0-4.4,2-4.4,4.5c0,2.5,2,4.5,4.4,4.5c13,0,23.5-9.8,23.7-21.9h70.6V358.6z"/>
	<path class="st0" d="M276.8,207h-215c-2.4,0-4.4,2-4.4,4.5s2,4.5,4.4,4.5h215c2.4,0,4.4-2,4.4-4.5S279.2,207,276.8,207z"/>
	<path class="st0" d="M61.8,191.8h140.6c2.4,0,4.4-2,4.4-4.5c0-2.5-2-4.5-4.4-4.5H61.8c-2.4,0-4.4,2-4.4,4.5
		C57.5,189.8,59.4,191.8,61.8,191.8z"/>
	<rect x="328.8" y="410.4" class="st0" width="39.2" height="30.3"/>
	<path class="st0" d="M343.6,489.9c0,2.6,2.1,4.8,4.7,4.8c2.6,0,4.7-2.1,4.7-4.8v-3.5h-9.3L343.6,489.9z"/>
	<path class="st0" d="M337.7,464.9l0,6.5l4.4,8.7h1.5h9.3h2.2l4.4-8.1l0-7.1c0-6.1,1.5-12,4.3-17.5l-30.4,0
		C336.2,452.9,337.7,458.9,337.7,464.9z"/>
</g>
</svg>
