<?xml version="1.0"?>
<svg xmlns="http://www.w3.org/2000/svg" xmlns:xlink="http://www.w3.org/1999/xlink" xmlns:svgjs="http://svgjs.com/svgjs" version="1.1" width="512" height="512" x="0" y="0" viewBox="0 0 24 24" style="enable-background:new 0 0 512 512" xml:space="preserve" class=""><g><g xmlns="http://www.w3.org/2000/svg"><path d="m17.77 8.55h-11.28l3.22-6.9c.46-.98 1.41-1.59 2.49-1.59h.03c1.09.01 2.04.64 2.49 1.63z" fill="#124734" data-original="#000000" style="" class=""/></g><g xmlns="http://www.w3.org/2000/svg"><path d="m20.88 15.55h-17.66l2.57-5.5h12.65z" fill="#124734" data-original="#000000" style="" class=""/></g><g xmlns="http://www.w3.org/2000/svg"><path d="m22.73 22.8c-.51.78-1.37 1.25-2.31 1.25h-16.84c-.95 0-1.82-.48-2.32-1.27-.51-.8-.58-1.79-.18-2.64l1.44-3.09h19.03l1.39 3.13c.38.86.3 1.83-.21 2.62z" fill="#124734" data-original="#000000" style="" class=""/></g></g></svg>
