<?xml version="1.0" encoding="utf-8"?>
<!-- Generator: Adobe Illustrator 19.2.1, SVG Export Plug-In . SVG Version: 6.00 Build 0)  -->
<svg version="1.1" id="Capa_1" xmlns="http://www.w3.org/2000/svg" xmlns:xlink="http://www.w3.org/1999/xlink" x="0px" y="0px"
	 viewBox="0 0 600 600" style="enable-background:new 0 0 600 600;" xml:space="preserve">
<style type="text/css">
	.st0{fill:#F1F5F9;}
</style>
<g>
	<path class="st0" d="M361.3,141.2c26.8,16.8,45.5,45.2,49,78.2c10.9,5.1,23,8,35.9,8c46.9,0,84.9-38,84.9-84.9
		c0-46.9-38-84.9-84.9-84.9C399.7,57.6,362,94.9,361.3,141.2z M305.7,315.1c46.9,0,84.9-38,84.9-84.9s-38-84.9-84.9-84.9
		s-84.9,38-84.9,84.9S258.8,315.1,305.7,315.1z M341.7,320.9h-72.1c-60,0-108.7,48.8-108.7,108.7v88.1l0.2,1.4l6.1,1.9
		c57.2,17.9,106.9,23.8,147.8,23.8c79.9,0,126.2-22.8,129.1-24.2l5.7-2.9h0.6v-88.1C450.5,369.6,401.7,320.9,341.7,320.9z
		 M482.2,233.2h-71.5c-0.8,28.6-13,54.4-32.3,72.9c53.3,15.8,92.3,65.3,92.3,123.6v27.2c70.6-2.6,111.3-22.6,114-23.9l5.7-2.9h0.6
		v-88.1C590.9,282,542.2,233.2,482.2,233.2z M156.7,227.4c16.6,0,32.1-4.8,45.2-13.1c4.2-27.1,18.7-50.9,39.5-67
		c0.1-1.6,0.2-3.2,0.2-4.8c0-46.9-38-84.9-84.9-84.9c-46.9,0-84.9,38-84.9,84.9C71.8,189.4,109.8,227.4,156.7,227.4z M233,306.1
		c-19.2-18.4-31.4-44.1-32.3-72.5c-2.7-0.2-5.3-0.4-8-0.4h-72c-60,0-108.7,48.8-108.7,108.7v88.1l0.2,1.4l6.1,1.9
		c45.9,14.3,86.9,20.9,122.4,23v-26.6C140.7,371.4,179.7,322,233,306.1z"/>
</g>
</svg>
