<?xml version="1.0" encoding="utf-8"?>
<!-- Generator: Adobe Illustrator 19.2.1, SVG Export Plug-In . SVG Version: 6.00 Build 0)  -->
<svg version="1.1" id="Capa_1" xmlns="http://www.w3.org/2000/svg" xmlns:xlink="http://www.w3.org/1999/xlink" x="0px" y="0px"
	 viewBox="0 0 600 600" style="enable-background:new 0 0 600 600;" xml:space="preserve">
<style type="text/css">
	.st0{fill:#F1F5F9;}
</style>
<g>
	<g>
		<rect x="452.2" y="297.1" class="st0" width="92.7" height="34.5"/>
		<polygon class="st0" points="71.1,25.7 71.1,79.9 94.8,72.6 94.8,49.4 568.3,49.4 568.3,351.2 191.5,351.2 190.3,374.9 592,374.9 
			592,25.7 		"/>
		<circle class="st0" cx="108.8" cy="155.3" r="70.1"/>
		<path class="st0" d="M168.3,551.3V426.5v-11.8v-16h4.5l6.5-126.7l120.9-62.7l-5.4-10.4l14.9-10.3c1.6,1.6,3.3,2.9,5.4,3.6
			l0.3,16.8c-2.8,1.1-5.2,3.1-6.8,5.8c-1.8,3.1-2.2,6.7-1.3,10.1s3.1,6.3,6.3,8.1c2,1.2,4.3,1.8,6.6,1.8c2.9,0,5.7-1,8-2.6l15.2,8.8
			c-0.1,1.4,0,2.8,0.4,4.2c0.9,3.5,3.1,6.3,6.2,8.1c2,1.2,4.3,1.8,6.6,1.8c4.8,0,9.2-2.6,11.6-6.7c1.5-2.6,2-5.6,1.6-8.4l14.6-8.2
			c2.3,2.1,5.3,3.4,8.7,3.4h0.2c2.8,0,5.5-0.9,7.6-2.5l16.3,9.3c-0.1,1.4,0,2.8,0.4,4.2c0.9,3.5,3.2,6.3,6.3,8.1
			c2,1.2,4.3,1.8,6.6,1.8c4.8,0,9.2-2.6,11.6-6.7c1.5-2.6,2-5.6,1.6-8.4l14.6-8.2c2.4,2.1,5.5,3.4,8.7,3.4h0.2
			c7.3,0,13.2-5.9,13.4-13.2c0-5.3-3-9.9-7.5-12.1l-0.2-17.8c4.3-2.1,7.4-6.6,7.5-11.8c0-3.6-1.3-6.9-3.8-9.5c-2.5-2.6-5.8-4-9.6-4
			c-4,0-7.5,1.8-10,4.7l-14.6-8.4c0.6-2.2,0.6-4.5,0-6.7c-0.6-2.4-2-4.6-3.7-6.2c0.1,0,0.1,0,0.2,0.1c-1.1-1-2.2-1.9-3.5-2.6
			l-0.2-17.8c4.4-2.1,7.5-6.6,7.5-11.8c0.1-3.6-1.3-6.9-3.8-9.5c-2.5-2.6-5.8-4-9.6-4c-4,0-7.5,1.8-10,4.7l-14.6-8.4
			c0.6-2.2,0.6-4.5,0-6.7c-0.9-3.5-3.1-6.3-6.3-8.1c-2-1.2-4.3-1.8-6.6-1.8c-4.8,0-9.2,2.6-11.6,6.7c-1.2,2-1.7,4.3-1.7,6.5
			l-15.2,8.6c-2.2-1.6-4.9-2.5-7.8-2.5c-4,0-8.4,2.3-10,4.6c-1.1,1.5-4.5,4.3-3.4,11.4c1.1,7.1,6.4,8.9,9.2,9.9l0.3,16.4
			c-0.1,0-0.1,0.1-0.2,0.1l0.6,0.1c-3.2,1-6,3.1-7.7,6.1c-1.2,2-1.7,4.3-1.8,6.5l-15.7,8.9c-2.2-1.4-4.8-2.3-7.4-2.3
			c-2.4,0-4.8,0.7-6.9,1.9c-4.4,2.7-6.5,7.5-6.3,12.3L290.7,191l-6.4-12.3L173.8,236h-39.5l-26.7,31l-25.9-31l-56.9,11.3l-3.6,125.2
			h24.1l1.3,26.2h3.7v16v11.8v124.8h-4.8l-28.2,6.1v25.9h24l27.9-4.6l0.3,4.6h31v-28.9v-3.2V426.5h17.6v124.8v3.2v28.9h31l0.3-4.6
			l28,4.6h24v-25.9l-28.2-6.1H168.3z M325.6,224.4c-1.6,2.8-5.5,3.9-8.4,2.3c-1.4-0.8-2.4-2.1-2.9-3.7c-0.4-1.6-0.2-3.2,0.6-4.7
			c1.1-1.9,3.2-3.1,5.3-3.1c1.1,0,2.1,0.3,3.1,0.8C326.2,217.7,327.2,221.5,325.6,224.4z M362,244.6c-1.7,2.8-5.5,3.9-8.4,2.3
			c-1.4-0.8-2.4-2.1-2.8-3.7c-0.4-1.6-0.2-3.2,0.6-4.6c1.1-1.9,3.1-3.1,5.3-3.1c1.1,0,2.1,0.3,3,0.8
			C362.6,237.9,363.7,241.7,362,244.6z M393.3,227.8v3.6l-0.1-3.6c-3.4,0-6.1-2.8-6-6.2c0-3.3,2.8-6,6.2-6c3.4,0,6.1,2.8,6.1,6.2
			C399.3,225.1,396.6,227.8,393.3,227.8z M393,186.2c-3.4,0-6.1-2.8-6.1-6.2c0.1-3.3,2.8-6.1,6.2-6.1c1.7,0,3.2,0.7,4.3,1.9
			c1.2,1.2,1.8,2.7,1.7,4.4c0,3.3-2.8,6-6.1,6v3.4L393,186.2z M435.7,245.7c-1.6,2.8-5.5,3.9-8.4,2.3c-1.4-0.8-2.4-2.1-2.8-3.7
			c-0.4-1.6-0.2-3.2,0.6-4.6c1.1-1.9,3.2-3.1,5.3-3.1c1.1,0,2.1,0.3,3,0.8C436.4,239,437.4,242.7,435.7,245.7z M473.1,222.9
			c0,3.3-2.8,6.1-6.1,6.1v3.6l-0.1-3.6c-1.7,0-3.2-0.7-4.3-1.9c-1.2-1.2-1.8-2.7-1.8-4.4c0.1-3.3,2.8-6.1,6.2-6.1
			C470.4,216.7,473.2,219.5,473.1,222.9z M466.9,175c1.6,0,3.2,0.7,4.3,1.9c1.1,1.2,1.8,2.7,1.7,4.3c0,3.3-2.8,6-6.1,6v3.4l-0.1-3.4
			c-3.4,0-6.1-2.8-6.1-6.2S463.5,175,466.9,175z M438.7,170.3l15,8.6c-0.1,0.6-0.2,1.3-0.2,2c-0.1,6.9,5.1,12.6,11.9,13.4l0.2,15.2
			c-6.6,0.7-11.9,6.2-11.9,13c0,1.4,0.2,2.7,0.6,4l-13.5,7.6c-1-1.2-2.2-2.3-3.7-3.2c-2-1.2-4.3-1.8-6.6-1.8
			c-4.3,0-8.4,2.2-10.9,5.7l-14-8c0.7-1.5,1-3.2,1.1-5c0.1-5.3-3-9.8-7.5-12.1l-0.2-17.8c4.4-2.1,7.5-6.6,7.6-11.8
			c0-1.8-0.3-3.6-1.1-5.2l12.6-7.2c1.1,1.8,2.7,3.4,4.6,4.6c2,1.2,4.3,1.8,6.6,1.8C432.9,174.2,436.2,172.8,438.7,170.3z
			 M435.3,159.2c0.4,1.6,0.2,3.2-0.6,4.6c-1.7,2.8-5.6,3.9-8.4,2.3c-2.9-1.7-4-5.4-2.2-8.4c1.1-1.9,3.1-3.1,5.3-3.1
			c1.1,0,2.1,0.3,3,0.8C433.8,156.3,434.9,157.6,435.3,159.2z M429.2,112.7c1.6,0,3.2,0.7,4.3,1.9c1.1,1.2,1.7,2.7,1.7,4.4
			c0,3.3-2.8,6-6.1,6H429c-3.4,0-6.1-2.8-6.1-6.2C423,115.4,425.8,112.7,429.2,112.7z M386.3,95.5c1.1-1.9,3.1-3.1,5.3-3.1
			c1.1,0,2.1,0.3,3,0.8c1.4,0.8,2.4,2.1,2.9,3.7c0.4,1.6,0.2,3.2-0.6,4.6c-1.7,2.8-5.6,3.9-8.4,2.3
			C385.6,102.2,384.6,98.4,386.3,95.5z M368.7,118c0-1.8-0.3-3.6-1-5.3l12.6-7.2c1.2,1.8,2.7,3.5,4.7,4.6c2,1.2,4.3,1.8,6.6,1.8
			c3.5,0,6.9-1.4,9.4-3.8l15,8.6c-0.1,0.7-0.2,1.3-0.2,2c-0.1,6.9,5.2,12.6,11.9,13.4l0.3,15.5c0,0,0,0,0.1,0
			c-4.2,0.4-8,2.9-10.2,6.6c-1.2,2-1.7,4.3-1.7,6.5l-15.1,8.6c-2.2-1.6-4.9-2.5-7.8-2.5c-4,0-7.6,1.8-10,4.6l-14.6-8.4
			c0.6-2.2,0.6-4.5,0-6.7c-0.8-2.9-2.5-5.4-4.9-7.1l0.3,0c-0.8-0.6-1.6-1.2-2.6-1.7l-0.2-17.8C365.6,127.6,368.7,123.1,368.7,118z
			 M349.2,117.7c0.1-3.3,2.8-6,6.2-6c1.7,0,3.2,0.7,4.3,1.9c1.1,1.2,1.8,2.7,1.7,4.3c0,3.3-2.8,6.1-6.1,6.1h-0.1
			C351.9,123.9,349.2,121.1,349.2,117.7z M350.3,156.7c1.1-1.9,3.1-3.1,5.3-3.1c1.1,0,2.1,0.3,3,0.8c1.4,0.8,2.5,2.1,2.9,3.7
			c0.4,1.6,0.3,3.2-0.6,4.6c-1.7,2.8-5.6,3.9-8.4,2.3C349.6,163.4,348.6,159.6,350.3,156.7z M332.2,182.8c0.8-2.9,0.4-6-0.9-8.7
			l13-7.3c1.1,1.8,2.7,3.4,4.6,4.6c2,1.2,4.3,1.8,6.7,1.8c3.5,0,6.9-1.4,9.3-3.8l15,8.6c-0.1,0.7-0.2,1.3-0.3,2
			c-0.1,5.9,3.8,11,9.1,12.8l0.3,16.4c-5.3,1.7-9.2,6.6-9.2,12.4c0,1.4,0.3,2.7,0.6,4l-13.5,7.6c-1-1.2-2.2-2.3-3.7-3.2
			c-2-1.2-4.3-1.8-6.6-1.8c-4.3,0-8.4,2.2-10.9,5.7l-13.2-7.6c2.4-6.1,0.1-13.1-5.7-16.5c-1.3-0.8-2.8-1.2-4.2-1.5l-0.3-15.8
			c1.3-0.3,2.6-0.8,3.7-1.5C329.2,189.2,331.4,186.3,332.2,182.8z M316.1,174.3c1-0.6,2-0.9,3.2-0.9c2.2,0,4.2,1.1,5.2,3
			c0.9,1.4,1.1,3.1,0.7,4.6s-1.4,2.9-2.8,3.8c-2.8,1.7-6.7,0.7-8.4-2.1C312.3,179.8,313.2,176,316.1,174.3z"/>
	</g>
</g>
</svg>
