<?xml version="1.0" encoding="utf-8"?>
<!-- Generator: Adobe Illustrator 19.2.1, SVG Export Plug-In . SVG Version: 6.00 Build 0)  -->
<svg version="1.1" id="Capa_1" xmlns="http://www.w3.org/2000/svg" xmlns:xlink="http://www.w3.org/1999/xlink" x="0px" y="0px"
	 viewBox="0 0 600 600" style="enable-background:new 0 0 600 600;" xml:space="preserve">
<style type="text/css">
	.st0{fill:#F1F5F9;}
</style>
<g>
	<g>
		<path class="st0" d="M417.3,258.7c15.4-3.3,29.7-16.1,32-44.4c1.9-23.2-4-35.1-12.8-41.2C460.8,74,393.7,54.5,393.7,54.5
			s-50.2-85.1-148.1-25.4c-12.5,7.6-31.8,22.2-43.4,37.2c-18.5,19.7-31.1,51.7-33.1,103.6c-12,4.6-21.4,16.1-19,44.4
			c2.4,29.6,17.9,42.2,34.1,44.8c21.9,53.4,65.2,97.4,116.4,97.4C352,356.5,395.4,312.3,417.3,258.7z M300.7,331.6
			c-59.2,0-106.9-80.4-106.9-147c0-9.1,0.3-17.6,0.9-25.4c86.6,3.8,137.9-30.9,165.8-61.1c26.4,26.4,40.2,59.7,47.2,84.4
			c0,0.7,0,1.4,0,2.1C407.6,251.2,359.9,331.6,300.7,331.6z"/>
		<path class="st0" d="M266.7,432.3l6.9-28.4c0.8-3.3,2.5-6.1,4.8-8.2c-0.7-0.5-1.4-1-2.1-1.6l-61.3-50.7l-37.3,8.7
			C114.6,367,70.2,420.3,70.2,481.4v80.3c0,15.8,14.1,28.4,30.9,28.4h157.8L282.9,453C272.1,452.8,264.2,442.9,266.7,432.3z"/>
		<path class="st0" d="M421.3,352.1l-36.8-8.7l-61.2,50.7c-0.7,0.5-1.3,1.1-2,1.6c2.3,2.2,4,5,4.8,8.2l6.8,28.4
			c2.6,10.5-5.4,20.5-16.2,20.7l24.1,137.2h157.8c16.8,0,29.6-12.6,29.6-28.4v-80.3C528.3,420.3,484.5,367,421.3,352.1z"/>
	</g>
</g>
</svg>
