<?xml version="1.0" encoding="utf-8"?>
<!-- Generator: Adobe Illustrator 19.2.1, SVG Export Plug-In . SVG Version: 6.00 Build 0)  -->
<svg version="1.1" id="Capa_1" xmlns="http://www.w3.org/2000/svg" xmlns:xlink="http://www.w3.org/1999/xlink" x="0px" y="0px"
	 viewBox="0 0 600 600" style="enable-background:new 0 0 600 600;" xml:space="preserve">
<style type="text/css">
	.st0{fill:#F1F5F9;}
</style>
<g>
	<g>
		<g>
			<path class="st0" d="M582.6,82.4l-51.9-51.8c-5.4-5.4-12.4-8-19.4-8c-7,0-14.1,2.7-19.4,8L450.3,72l90.8,90.6l41.5-41.4
				C593.3,110.5,593.3,93.1,582.6,82.4z"/>
			<polygon class="st0" points="180.9,340.9 271.6,431.5 521.6,182 430.9,91.4 			"/>
			<polygon class="st0" points="161.3,360.3 141.9,470.2 252.1,450.9 			"/>
			<path class="st0" d="M412.2,519.2H70V177h241.5l59.5-59.4H49c-21.1,0-38.4,17.3-38.4,38.4v384.2c0,21.1,17.3,38.4,38.4,38.4
				h384.2c21.1,0,38.4-17.3,38.4-38.4V265.5l-59.4,59.3L412.2,519.2L412.2,519.2z"/>
		</g>
	</g>
</g>
</svg>
