<?xml version="1.0" encoding="utf-8"?>
<!-- Generator: Adobe Illustrator 19.2.1, SVG Export Plug-In . SVG Version: 6.00 Build 0)  -->
<svg version="1.1" id="Layer_1" xmlns="http://www.w3.org/2000/svg" xmlns:xlink="http://www.w3.org/1999/xlink" x="0px" y="0px"
	 viewBox="0 0 600 600" style="enable-background:new 0 0 600 600;" xml:space="preserve">
<style type="text/css">
	.st0{fill-rule:evenodd;clip-rule:evenodd;fill:#DBE1E7;}
</style>
<g>
	<path class="st0" d="M67.8,247.6h321.6c29.5,0,53.6,24.1,53.6,53.6v49.9l86.7-61.2c16.1-11.3,38.4-7.4,49.7,8.7
		c4.4,6.3,6.6,13.4,6.6,20.5v214.4c0,19.8-16,35.8-35.7,35.8c-8.5,0-16.2-2.9-22.4-7.9L443,501.5v32c0,29.5-24.1,53.6-53.6,53.6
		H67.8c-29.5,0-53.6-24.1-53.6-53.6V301.2C14.2,271.7,38.3,247.6,67.8,247.6L67.8,247.6z M344.7,15.3c-54.3,0-98.3,44-98.3,98.3
		c0,54.3,44,98.3,98.3,98.3c54.3,0,98.3-44,98.3-98.3C443,59.3,399,15.3,344.7,15.3L344.7,15.3z M344.7,68.9
		c24.7,0,44.7,20,44.7,44.7c0,24.7-20,44.7-44.7,44.7c-24.7,0-44.7-20-44.7-44.7C300.1,89,320.1,68.9,344.7,68.9L344.7,68.9z
		 M112.5,15.3c-54.3,0-98.3,44-98.3,98.3c0,54.3,44,98.3,98.3,98.3c54.3,0,98.3-44,98.3-98.3C210.7,59.3,166.7,15.3,112.5,15.3
		L112.5,15.3z M112.5,68.9c24.7,0,44.7,20,44.7,44.7c0,24.7-20,44.7-44.7,44.7c-24.7,0-44.7-20-44.7-44.7
		C67.8,89,87.8,68.9,112.5,68.9z"/>
</g>
</svg>
