<?xml version="1.0" encoding="utf-8"?>
<!-- Generator: Adobe Illustrator 19.2.1, SVG Export Plug-In . SVG Version: 6.00 Build 0)  -->
<svg version="1.1" id="Layer_1" xmlns="http://www.w3.org/2000/svg" xmlns:xlink="http://www.w3.org/1999/xlink" x="0px" y="0px"
	 viewBox="0 0 500 500" style="enable-background:new 0 0 500 500;" xml:space="preserve">
<style type="text/css">
	.st0{fill:#21395A;}
</style>
<g>
	<g>
		<g>
			<rect x="109.8" y="451.6" class="st0" width="270.7" height="39.9"/>
		</g>
		<g>
			<rect x="139.4" y="404.6" class="st0" width="211.6" height="34.7"/>
		</g>
		<g>
			<path class="st0" d="M261.6,357.4V322h-32.9v35.4c-21.5,5.1-37.1,19.7-37.1,37.2h107C298.7,377.1,283.1,362.5,261.6,357.4z"/>
		</g>
	</g>
	<g>
		<path class="st0" d="M447.3,155c9.7-8.4,4.4-23-9.1-24.7l-112.3-14.4c-5.3-0.7-10-3.6-12.3-7.9L263.3,18c-6-10.8-23.4-10.8-29.4,0
			l-50.2,89.9c-2.4,4.3-7,7.2-12.3,7.9L59.1,130.3C45.6,132,40.2,146.6,50,155l81.3,70c3.9,3.3,5.6,8.1,4.7,12.8l-19.2,98.9
			c-2.3,11.8,11.8,20.9,23.8,15.3L241,305.3c4.8-2.2,10.5-2.2,15.3,0L356.7,352c12,5.6,26.1-3.4,23.8-15.3l-19.2-98.9
			c-0.9-4.7,0.9-9.5,4.7-12.8L447.3,155z M325.6,217.4c-2.5,2.2-3.7,5.3-3.1,8.4l12.6,64.8c1.5,7.7-7.7,13.7-15.6,10L253.6,270
			c-3.1-1.5-6.9-1.5-10,0l-65.8,30.6c-7.9,3.7-17.1-2.2-15.6-10l12.6-64.8c0.6-3.1-0.6-6.2-3.1-8.4l-53.3-45.9
			c-6.4-5.5-2.9-15,5.9-16.2l73.6-9.5c3.5-0.5,6.5-2.4,8.1-5.2l32.9-59c3.9-7,15.3-7,19.2,0l32.9,59c1.6,2.8,4.6,4.7,8.1,5.2
			l73.6,9.5c8.8,1.1,12.3,10.7,5.9,16.2L325.6,217.4z"/>
	</g>
</g>
</svg>
