<?xml version="1.0" encoding="utf-8"?>
<!-- Generator: Adobe Illustrator 19.2.1, SVG Export Plug-In . SVG Version: 6.00 Build 0)  -->
<svg version="1.1" id="Layer_1" xmlns="http://www.w3.org/2000/svg" xmlns:xlink="http://www.w3.org/1999/xlink" x="0px" y="0px"
	 viewBox="0 0 1240 1126" style="enable-background:new 0 0 1240 1126;" xml:space="preserve">
<style type="text/css">
	.st0{fill:#DAE1E7;}
</style>
<g transform="translate(0.000000,1126.000000) scale(0.100000,-0.100000)">
	<path class="st0" d="M4120,10830c-19-5-84-13-145-20c-249-26-591-107-865-205c-977-350-1797-1036-2362-1975
		c-255-424-441-900-406-1038c16-61,88-70,121-15c10,17,51,121,91,230c236,643,573,1159,1065,1635c580,560,1253,946,1959,1122
		c364,90,676,112,1077,76c189-18,226-23,222-33c-1-5-61-27-132-48c-392-115-837-342-1197-612c-527-393-994-971-1281-1582
		c-151-322-208-549-157-632c21-35,84-59,121-48c33,11,64,71,124,240c76,213,178,439,271,602c88,155,171,283,185,283c12,0,12,2-10-71
		c-53-174-91-369-116-592c-22-200-19-328,11-529c34-224,36-394,5-488c-52-165-208-416-425-685c-146-181-170-225-170-305
		c1-73,30-137,95-206c43-45,76-66,174-113c132-64,167-95,186-164c18-68,6-183-29-263c-40-91-45-124-32-176c15-54,53-95,102-110
		c21-6,38-13,38-16c0-2-13-19-29-38c-42-47-56-123-36-192c14-46,21-55,63-76c62-32,95-68,128-140c25-56,26-63,20-170
		c-22-381-22-373,39-501c101-211,224-249,830-259c292-5,374-14,506-57c336-110,624-380,775-728c21-49,30-81,24-91c-4-8-48-62-96-120
		c-587-702-1121-1109-1709-1303c-371-123-791-150-1103-72c-214,54-398,178-464,313c-30,60-33,76-32,152c0,72,6,101,37,188
		c100,276,109,306,114,375c14,187-96,391-273,507c-97,63-173,84-299,84c-123-1-195-23-294-88c-140-94-241-252-287-452
		c-26-114-24-321,5-428c156-582,825-932,1721-902c809,26,1582,299,2405,849c320,214,627,475,1083,922c471,462,903,1003,1345,1688
		c133,207,511,836,602,1002c21,39,73,131,116,205c125,219,315,569,634,1165c559,1044,799,1464,1078,1880c177,264,327,462,496,654
		c103,117,236,251,248,251c21,0,151-107,239-197c166-167,308-413,368-633c46-169,59-279,59-485c0-220-12-341-54-548
		c-164-821-744-1607-1434-1943c-158-77-284-113-420-121c-109-6-139-1-435,65c-270,62-375,64-514,12c-66-25-136-84-160-134
		c-24-51-20-123,9-182c29-57,69-88,157-117c84-28,318-29,538-3c179,21,248,18,322-17c185-86,299-296,315-582c13-233-27-470-188-1105
		c-87-343-135-565-171-790c-20-126-23-180-22-415c0-256,1-277,27-400c98-460,324-802,635-959c267-135,604-56,1017,238
		c303,216,806,710,1141,1121c139,170,245,329,260,391c15,60-68,86-125,39c-16-15-85-94-153-177c-184-227-290-347-476-544
		c-524-554-960-856-1237-858c-70-1-86,2-127,26c-91,54-157,158-179,283c-14,80-7,222,17,365c17,98,119,514,204,828
		c53,196,129,553,154,717c40,268,45,567,11,744c-40,206-155,473-280,647c-157,218-374,422-594,558c-61,38-110,70-108,72
		s68,15,148,29c468,81,912,249,1307,496c684,426,1168,1072,1284,1709c27,153,29,410,4,555c-66,373-251,722-539,1022
		c-176,183-370,332-599,461c-65,36-118,69-118,72c1,12,316,239,440,316c254,158,281,176,294,198c26,41,28,64,7,85
		c-43,43-145,21-286-60c-111-64-451-283-561-361c-45-32-84-58-88-58s-87,30-184,66c-305,115-605,197-937,258c-256,47-413,67-785,101
		c-30,2-188,9-350,16c-323,12-652,2-955-27l-170-17l-75,35c-101,48-170,72-314,113c-273,76-472,97-891,94c-271-2-318,0-375,15
		c-116,32-334,74-441,86c-57,6-128,15-158,21C4676,10842,4170,10841,4120,10830z M6264,10415c175-39,381-108,495-166
		c223-111,432-312,540-519c179-342,209-910,77-1475c-133-566-472-1198-920-1712c-149-170-293-319-302-310c-4,4,33,87,83,185
		c169,327,348,763,429,1044c111,386,155,687,155,1068c-1,228-20,381-77,602c-129,504-351,933-621,1207c-57,58-103,107-103,109
		C6020,10458,6152,10441,6264,10415z M8285,10320c152-10,345-26,410-35c202-28,285-42,426-70c213-43,250-53,451-120
		c206-68,519-207,517-229c0-6-71-65-156-131c-787-604-1521-1413-2194-2416c-92-137-125-178-127-162c-2,12,6,39,17,61
		c62,122,177,464,225,673c64,279,90,503,89,769c-1,497-138,973-376,1305c-74,104-199,244-256,290c-28,22-51,43-51,47
		c0,7,64,16,155,21C7543,10331,8142,10329,8285,10320z"/>
	<path class="st0" d="M11435,1415c-23-22-30-51-25-100c3-29,38-63,79-76c48-15,71-37,71-66c0-51-84-52-92-1c-2,18-9,23-33,23
		c-25,0-31-4-33-26c-8-67,89-110,171-76c40,17,57,47,57,101c0,40-28,69-100,102c-48,22-51,26-48,56c2,28,8,34,30,36c22,3,30-2,38-22
		c7-20,16-26,40-26c34,0,38,15,15,59c-17,35-32,41-96,41C11469,1440,11454,1435,11435,1415z"/>
	<path class="st0" d="M11670,1266v-176h30h30v106c0,127,16,136,40,23c30-136,28-131,58-127c26,3,28,8,51,116c13,61,28,112,32,112
		c5,0,9-52,9-115v-115h30h30v176v175l-52-3l-52-3l-21-102c-11-56-23-105-27-108c-8-8-9-4-36,125l-18,85l-52,3l-52,3V1266z"/>
</g>
</svg>
