<svg id="Layer_1" data-name="Layer 1" xmlns="http://www.w3.org/2000/svg" viewBox="0 0 1499.6 1560"><defs><style>.cls-1{fill:#143658;}</style></defs><path class="cls-1" d="M606.19,335.83a356.28,356.28,0,0,1,49.67-38.58C606.48,213.3,546.8,107.25,486.55,0H183.18C327.61,114.29,490.68,241.29,606.19,335.83Z" transform="translate(-0.4)"/><path class="cls-1" d="M1070.62,0c-21.42,94.71-42.28,185.41-60.81,260.12a383.44,383.44,0,0,1,56.43,26.05c57.06-81.06,131.93-183,207.88-286.17Z" transform="translate(-0.4)"/><path class="cls-1" d="M794.52,242.67a408.54,408.54,0,0,1,66.76-7.26c3.09-68.91,8-150.24,13.39-235.41H705.16C738.08,87.61,769.42,171.8,794.52,242.67Z" transform="translate(-0.4)"/><path class="cls-1" d="M510.34,500.51a301.12,301.12,0,0,1,16-51.27C382,368.2,176.13,245.25.4,142.86V406.4C180.55,438.94,372.89,472.9,510.34,500.51Z" transform="translate(-0.4)"/><path class="cls-1" d="M1500,50.38c-88.7,89.9-180,182.81-258.24,260.53L1500,214.67Z" transform="translate(-0.4)"/><path class="cls-1" d="M394,626.89C275.71,621.84,135.76,614.3.4,607.28V773.59Z" transform="translate(-0.4)"/><path class="cls-1" d="M768.38,345C675,379.83,612.81,458.42,606.26,547.77l437.39-163C968,326,861.86,310.21,768.38,345Z" transform="translate(-0.4)"/><polygon class="cls-1" points="0 1251.62 0 1560 1499.6 1560 1499.6 1533.77 0 1251.62"/><polygon class="cls-1" points="81.49 1173.58 185.93 1193.23 453.65 953.95 390.45 897.47 81.49 1173.58"/><polygon class="cls-1" points="1499.6 1267.78 1106.43 916.42 690.49 1288.16 1499.6 1440.4 1499.6 1267.78"/><polygon class="cls-1" points="825.38 1038.36 664.59 894.67 305.39 1215.7 571.04 1265.69 825.38 1038.36"/><polygon class="cls-1" points="390.45 768.22 525.95 889.34 664.59 765.44 897.67 973.75 1106.43 787.18 1499.6 1138.57 1499.6 313.68 0 872.59 0 1117.18 390.45 768.22"/></svg>