<?xml version="1.0" encoding="utf-8"?>
<!-- Generator: Adobe Illustrator 19.2.1, SVG Export Plug-In . SVG Version: 6.00 Build 0)  -->
<svg version="1.1" id="Layer_1" xmlns="http://www.w3.org/2000/svg" xmlns:xlink="http://www.w3.org/1999/xlink" x="0px" y="0px"
	 viewBox="0 0 500 500" style="enable-background:new 0 0 500 500;" xml:space="preserve">
<style type="text/css">
	.st0{fill:#F1F5F9;}
</style>
<g>
	<path class="st0" d="M302.7,128.7V7.7H48.3c-18.7,0-33.9,12-33.9,26.9v430c0,14.8,15.2,26.9,33.9,26.9h407.1
		c18.7,0,33.9-12,33.9-26.9v-309H336.7C317.9,155.5,302.7,143.5,302.7,128.7z M65.2,48h186.6V169H65.2V48z M65.2,249.6h254.5v26.9
		H65.2V249.6z M65.2,357.1h254.5v26.9H65.2V357.1z M438.5,437.7H65.2v-26.9h373.2V437.7z M438.5,330.2H65.2v-26.9h373.2V330.2z
		 M438.5,222.7H65.2v-26.9h373.2V222.7z"/>
	<path class="st0" d="M370.6,128.7h118.8L336.7,7.7v94.1C336.7,116.6,351.9,128.7,370.6,128.7z"/>
</g>
</svg>
