<?xml version="1.0" encoding="utf-8"?>
<!-- Generator: Adobe Illustrator 19.2.1, SVG Export Plug-In . SVG Version: 6.00 Build 0)  -->
<svg version="1.1" id="Layer_1" xmlns="http://www.w3.org/2000/svg" xmlns:xlink="http://www.w3.org/1999/xlink" x="0px" y="0px"
	 viewBox="0 0 500 500" style="enable-background:new 0 0 500 500;" xml:space="preserve">
<style type="text/css">
	.st0{fill:#F1F5F9;}
</style>
<g id="XMLID_19_">
	<g>
		<polygon class="st0" points="210.1,291.2 231.9,234.8 247.7,234.8 263.4,234.8 285.3,291.2 247.7,383.4 		"/>
		<path class="st0" d="M247.9,206.7c-26.6,0-72.4-30.2-87.7-71.5c-6.3-1.1-11.2-5.8-14.1-20.7c-3.4-18.1,1.8-22.7,9.6-24.5
			c4.2-46.7,26.6-82.2,92.3-82.2c65.8,0,88.3,35.5,92.4,82.3c7.5,1.9,12.4,6.6,9,24.3c-2.7,14.5-7.4,19.4-13.5,20.6
			C320.5,176.5,274.6,206.7,247.9,206.7z"/>
		<path class="st0" d="M242.5,495.1c-203.6,0-229.6-126.3-229.6-126.3v-65.4c0-68.5,80-97,145.6-108.9l89.1,217.7l89.1-217.7
			c65.6,11.9,145.7,40.4,145.7,108.9v65.4c0,0-26.1,126.3-229.6,126.3H242.5z"/>
	</g>
</g>
</svg>
