<?xml version="1.0" encoding="utf-8"?>
<!-- Generator: Adobe Illustrator 19.2.1, SVG Export Plug-In . SVG Version: 6.00 Build 0)  -->
<svg version="1.1" id="Capa_1" xmlns="http://www.w3.org/2000/svg" xmlns:xlink="http://www.w3.org/1999/xlink" x="0px" y="0px"
	 viewBox="0 0 600 600" style="enable-background:new 0 0 600 600;" xml:space="preserve">
<style type="text/css">
	.st0{fill:#F1F5F9;}
</style>
<g>
	<path class="st0" d="M328.1,232.1c3.4,0,6.7,0.5,9.8,1.5l58.7-72c3.8-4.6,10.7-5.5,15.3-1.6c4.4,3.7,5,10.3,1.3,14.8l-58.1,71.2
		c3.9,5.5,6.3,12.2,6.3,19.4c0,13.5-8.1,25.2-19.7,30.4h227.9c8.4,0,15.1-6.8,15.1-15.1V88.9c0-8.4-6.8-15.1-15.1-15.1H280.1
		c-8.4,0-15.1,6.8-15.1,15.1v125.8l13.7,17.3L328.1,232.1L328.1,232.1z"/>
	<circle class="st0" cx="139.2" cy="87.3" r="62"/>
	<g>
		<path class="st0" d="M202.8,554.1c0,8.4-6.8,15.1-15.1,15.1h-25.4c-8.4,0-15.1-6.8-15.1-15.1V427.1c0-4.5-3.6-8.1-8.1-8.1l0,0
			c-4.5,0-8.1,3.6-8.1,8.1v126.3c0,8.7-7.1,15.7-15.7,15.7H90.2c-8.4,0-15.1-6.8-15.1-15.1L75,247.6c0-4.1-3.3-7.5-7.5-7.5l0,0
			c-4.1,0-7.5,3.3-7.5,7.5v117.9c0,8.4-6.8,15.1-15.1,15.1H32.4c-8.4,0-15.1-6.8-15.1-15.1V203.9c0-19.2,15.6-34.7,34.7-34.7h137.9
			c14.8,0,28.8,6.8,38,18.4l37.1,46.8l7.8,9.9c0,0,35.1,0,55.4,0.1c8.4,0,15.1,6.8,15.1,15.1v12.1c0,8.4-6.8,15.1-15.1,15.1h-65.5
			c-6.5,0-12.6-3-16.6-8.1L218.4,243c-1.4-1.8-3.6-2.9-5.9-2.9h-1.9c-4.1,0-7.5,3.3-7.5,7.5L202.8,554.1z"/>
	</g>
</g>
</svg>
